<?xml version="1.0" standalone="no"?>
<!DOCTYPE svg PUBLIC "-//W3C//DTD SVG 1.1//EN" "http://www.w3.org/Graphics/SVG/1.1/DTD/svg11.dtd" >
<svg xmlns="http://www.w3.org/2000/svg">
<metadata></metadata>
<defs>
<font id="anglecia_pro_titregular" horiz-adv-x="1558" >
<font-face units-per-em="2048" ascent="1536" descent="-512" />
<missing-glyph horiz-adv-x="434" />
<glyph unicode="&#xfb01;" horiz-adv-x="1183" d="M59 0v39l123 43v842h-123v39l123 32v189q0 151 125.5 240t341.5 89q160 0 258.5 -60.5t98.5 -160.5q0 -59 -34 -90t-83 -31q-52 0 -88.5 36.5t-36.5 92.5v130q-53 32 -129 32q-120 0 -185 -73.5t-65 -202.5v-203h297l291 14l28 -28v-893l123 -37v-39h-444v39l119 43v811 l-99 31h-315v-844l182 -41v-39h-508z" />
<glyph unicode="&#xfb02;" horiz-adv-x="1177" d="M59 0v39l123 43v842h-123v39l123 32v195q0 150 120 236.5t341 86.5q89 0 174 -16l164 23l27 -29v-1415l122 -37v-39h-454v39l129 43v1321q-60 57 -168 57q-121 0 -186.5 -70.5t-65.5 -197.5v-209h299v-59h-299v-844l186 -41v-39h-512z" />
<glyph unicode="&#xfb03;" horiz-adv-x="1800" d="M59 0v39l123 43v842h-123v39l123 32v113q0 169 139 268t357 99q143 0 244 -58q120 96 344 96q158 0 257 -60.5t99 -160.5q0 -59 -34 -90t-83 -31q-52 0 -88.5 36.5t-36.5 92.5v130q-53 32 -129 32q-120 0 -185 -73.5t-65 -202.5v-203h297l291 14l29 -28v-893l123 -37v-39 h-445v39l119 43v811l-98 31h-316v-844l183 -41v-39h-506v39l121 43v842h-414v-844l180 -41v-39h-506zM385 983h365l51 12v189q0 107 67 186q-77 53 -192 53q-137 0 -214 -85t-77 -228v-127z" />
<glyph unicode="&#xfb04;" horiz-adv-x="1806" d="M59 0v39l123 43v842h-123v39l123 32v113q0 168 138.5 267.5t353.5 99.5q143 0 239 -58q120 96 344 96q93 0 175 -16l165 23l27 -29v-1415l123 -37v-39h-455v39l129 43v1321q-60 57 -168 57q-121 0 -186.5 -70.5t-65.5 -197.5v-209h299v-59h-299v-844l187 -41v-39h-512v39 l123 43v842h-414v-844l180 -41v-39h-506zM385 983h365l49 12v195q0 110 63 182q-79 51 -186 51q-139 0 -215 -84.5t-76 -228.5v-127z" />
<glyph horiz-adv-x="2048" />
<glyph horiz-adv-x="2048" />
<glyph unicode="&#xd;" horiz-adv-x="2048" />
<glyph unicode=" "  horiz-adv-x="434" />
<glyph unicode="&#x09;" horiz-adv-x="434" />
<glyph unicode="&#xa0;" horiz-adv-x="434" />
<glyph unicode="!" horiz-adv-x="428" d="M90 1317q0 54 35 89.5t88 35.5q54 0 89.5 -35.5t35.5 -89.5q0 -12 -4.5 -36t-13.5 -79.5t-20 -143.5t-25.5 -262t-28.5 -401h-64q-14 226 -28.5 399.5t-25.5 261.5t-20 144t-13.5 80t-4.5 37zM94 111q0 51 34.5 84.5t84.5 33.5q52 0 86.5 -33.5t34.5 -84.5t-34.5 -85 t-86.5 -34q-50 0 -84.5 34t-34.5 85z" />
<glyph unicode="&#x22;" horiz-adv-x="593" d="M94 1360q0 35 22.5 58.5t57.5 23.5q34 0 57 -23.5t23 -58.5q0 -18 -9.5 -55t-23.5 -110.5t-22 -170.5h-52q-8 97 -21.5 171t-22.5 110.5t-9 54.5zM346 1360q0 35 22.5 58.5t57.5 23.5t57.5 -23.5t22.5 -58.5q0 -18 -9 -54.5t-22.5 -110.5t-21.5 -171h-52q-8 97 -22 170.5 t-23.5 110.5t-9.5 55z" />
<glyph unicode="#" horiz-adv-x="1220" d="M88 440v72h188l123 410h-221v69h244l129 443h78l-131 -443h381l131 443h77l-133 -443h176v-69h-196l-121 -410h227v-72h-249l-129 -440h-78l131 440h-381l-131 -440h-78l133 440h-170zM354 512h381l123 410h-383z" />
<glyph unicode="$" horiz-adv-x="1204" d="M102 336h54q18 -81 58.5 -140.5t95.5 -91.5t110.5 -47.5t116.5 -17.5l20 602q-43 12 -66 19t-63 20.5t-62.5 24t-56.5 26.5t-53.5 32.5t-44.5 38.5t-39 47.5t-27.5 56t-19.5 67t-6 78.5q0 84 27 154.5t81.5 125t145.5 85t211 30.5l4 90h65l-4 -92q146 -11 291 -88h86 l14 -260h-55q-16 80 -53 139t-86.5 90.5t-97.5 47t-101 18.5l-18 -557q94 -30 144 -48.5t123 -57t109.5 -79.5t64.5 -107t28 -149q0 -182 -123.5 -292t-376.5 -113l-2 -90h-64l3 92q-191 9 -334 88h-84zM297 1108q0 -45 12.5 -80t32.5 -60t56 -46.5t73 -36.5t94 -33l17 539 q-132 -9 -208.5 -85t-76.5 -198zM600 39q149 9 234.5 87.5t85.5 217.5q0 61 -17.5 103.5t-58.5 74t-91 53t-132 46.5z" />
<glyph unicode="%" horiz-adv-x="1525" d="M98 1075q0 169 83.5 270t215.5 101q135 0 217 -100.5t82 -270.5t-82 -270t-217 -100q-133 0 -216 100.5t-83 269.5zM240 1075q0 -153 43 -235t116 -82q71 0 114.5 82.5t43.5 234.5q0 151 -43.5 234.5t-114.5 83.5q-72 0 -115.5 -83t-43.5 -235zM297 0l844 1434h88 l-844 -1434h-88zM827 358q0 170 82.5 270.5t216.5 100.5t216.5 -100.5t82.5 -270.5t-82.5 -270t-216.5 -100t-216.5 100t-82.5 270zM967 358q0 -152 44 -234.5t115 -82.5q72 0 116 82.5t44 234.5q0 151 -44.5 234.5t-115.5 83.5t-115 -83.5t-44 -234.5z" />
<glyph unicode="&#x26;" horiz-adv-x="1466" d="M100 399q0 51 11 96t28.5 79.5t47 66t57.5 54t69.5 45.5t74 38t79.5 35q-139 184 -139 342q0 131 86 210t254 79q156 0 233.5 -71t77.5 -185q0 -63 -22.5 -115.5t-66.5 -93.5t-89.5 -71t-110.5 -62l414 -506q78 163 78 408l-127 38v29h323v-29l-125 -41q0 -281 -104 -460 l172 -211l117 -35v-39h-318l-116 139q-152 -149 -402 -149q-235 0 -368.5 112.5t-133.5 296.5zM303 391q0 -164 88 -249t252 -85q198 0 320 136l-437 538q-50 -27 -86.5 -55.5t-69.5 -68.5t-50 -94.5t-17 -121.5zM518 1202q0 -135 131 -303q60 30 100 56.5t77.5 61.5 t56 77.5t18.5 93.5q0 92 -57.5 146.5t-149.5 54.5q-83 0 -129.5 -48t-46.5 -139z" />
<glyph unicode="'" horiz-adv-x="348" d="M94 1360q0 35 22.5 58.5t57.5 23.5q34 0 57 -23.5t23 -58.5q0 -18 -9.5 -55t-23.5 -110.5t-22 -170.5h-52q-8 97 -21.5 171t-22.5 110.5t-9 54.5z" />
<glyph unicode="(" horiz-adv-x="565" d="M100 563q0 618 359 985l35 -37q-209 -350 -209 -948q0 -600 209 -950l-35 -35q-359 362 -359 985z" />
<glyph unicode=")" horiz-adv-x="565" d="M74 -387q207 351 207 950q0 280 -51 525t-156 423l35 37q356 -367 356 -985q0 -623 -356 -985z" />
<glyph unicode="*" horiz-adv-x="901" d="M78 1171q7 26 31 37.5t49 3.5q14 -5 43 -22.5t88 -48t139 -62.5q-6 86 -17 152t-18.5 98.5t-7.5 46.5q0 28 18.5 47t47.5 19q27 0 45 -19t18 -47q0 -14 -7.5 -46.5t-18.5 -98.5t-17 -152q81 33 140 64t87 48t41 21q28 8 51.5 -4t32.5 -39q9 -25 -3.5 -48.5t-39.5 -30.5 q-13 -4 -46.5 -7t-99 -13.5t-149.5 -31.5q56 -66 104.5 -113.5t73 -68.5t31.5 -33q17 -23 14 -49t-26 -43q-22 -15 -48.5 -10.5t-41.5 27.5q-10 13 -23 43t-42.5 90t-75.5 133q-46 -74 -76 -133.5t-43 -90.5t-21 -42q-18 -23 -43 -28t-49 13q-21 15 -24 42t12 48q8 11 34 33 t73 68.5t102 113.5q-85 20 -151 30t-99 12.5t-47 6.5q-26 9 -38 32.5t-3 51.5z" />
<glyph unicode="+" horiz-adv-x="931" d="M82 580v69h348v346h70v-346h348v-69h-348v-351h-70v351h-348z" />
<glyph unicode="," horiz-adv-x="405" d="M84 115q0 51 33 82.5t86 31.5q50 0 84.5 -33.5t34.5 -101.5q0 -47 -18 -95.5t-52.5 -94t-57.5 -71.5t-59 -62l-31 28q40 39 71.5 95t31.5 86q0 14 -6 20q-50 0 -83.5 32.5t-33.5 82.5z" />
<glyph unicode="-" horiz-adv-x="630" d="M82 528v70h465v-70h-465z" />
<glyph unicode="." horiz-adv-x="405" d="M84 111q0 51 33.5 84.5t83.5 33.5q52 0 86.5 -33.5t34.5 -84.5t-34.5 -85t-86.5 -34q-50 0 -83.5 34t-33.5 85z" />
<glyph unicode="/" horiz-adv-x="716" d="M4 -205l631 1741h78l-631 -1741h-78z" />
<glyph unicode="0" horiz-adv-x="1331" d="M104 717q0 333 156 531t406 198t404.5 -198t154.5 -531q0 -335 -154.5 -532t-404.5 -197q-251 0 -406.5 197.5t-155.5 531.5zM319 715q0 -323 95 -498.5t252 -175.5q155 0 249.5 175.5t94.5 498.5q0 325 -94.5 501.5t-249.5 176.5q-157 0 -252 -176.5t-95 -501.5z" />
<glyph unicode="1" horiz-adv-x="757" d="M88 1331v47l371 70l28 -29v-1343l170 -37v-39h-542v39l170 43v1249h-197z" />
<glyph unicode="2" horiz-adv-x="1095" d="M78 0v82q122 109 185.5 168t161 157t149 168.5t106.5 161t78.5 179.5t23.5 182q0 146 -71 218.5t-205 72.5q-119 0 -209 -78v-164q0 -49 -31.5 -81t-77.5 -32t-76 29.5t-30 89.5q0 122 121.5 205.5t320.5 83.5q213 0 336 -94.5t123 -278.5q0 -59 -14.5 -118.5t-36.5 -112 t-61 -110t-76 -103.5t-94.5 -102.5t-102.5 -97t-113.5 -96.5t-115 -92.5t-119.5 -92.5q-3 -2 -4 -3h649l63 181h52l-4 -322h-928z" />
<glyph unicode="3" horiz-adv-x="1204" d="M131 254q0 57 30.5 86t76.5 29t77 -31t31 -80v-152q85 -59 217 -59q147 0 237.5 87t90.5 247q0 167 -104.5 251.5t-284.5 84.5h-94v55h92q160 0 245.5 75.5t85.5 231.5q0 148 -72.5 227.5t-195.5 79.5t-207 -65v-145q0 -51 -30 -82t-78 -31q-43 0 -74 30.5t-31 86.5 q0 82 67.5 144t168 91t213.5 29q204 0 326 -98t122 -263q0 -132 -80 -218.5t-219 -119.5q166 -33 261.5 -128t95.5 -240q0 -178 -139.5 -283.5t-366.5 -105.5q-118 0 -221 29.5t-171.5 91.5t-68.5 145z" />
<glyph unicode="4" horiz-adv-x="1202" d="M104 307v41q88 151 146.5 267t113 254.5t81 278.5t26.5 286h201q0 -122 -27 -242t-69.5 -222t-110 -213t-133.5 -199t-156 -196h576v463l170 172l28 -28v-607h150v-55h-150v-231l123 -37v-39h-444v39l123 43v225h-648z" />
<glyph unicode="5" horiz-adv-x="1116" d="M102 236q0 57 31 86.5t76 29.5q48 0 78 -30.5t30 -81.5v-142q80 -55 191 -55q147 0 228 100t81 281q0 191 -92 295t-264 104q-144 0 -244 -69l-35 34l58 644q435 0 675 28v-170h-602l-82 -477q124 74 297 74q238 0 368 -121t130 -328q0 -208 -134.5 -328t-371.5 -120 q-113 0 -207 28t-152.5 85t-58.5 133z" />
<glyph unicode="6" horiz-adv-x="1183" d="M96 627q0 199 60.5 351t172.5 249t258.5 151t330.5 68l34 -35q-608 -100 -645 -651q113 110 314 110q211 0 338.5 -118t127.5 -318q0 -204 -132.5 -324t-344.5 -120q-250 0 -382 170t-132 467zM305 649q0 -294 74.5 -450t220.5 -156q127 0 203 102.5t76 282.5 q0 182 -85 280.5t-219 98.5q-91 0 -164 -43.5t-106 -114.5z" />
<glyph unicode="7" horiz-adv-x="1136" d="M104 1108l13 326h915v-45q-44 -123 -133.5 -340t-143 -355.5t-98.5 -331t-45 -362.5h-202q0 143 32 279.5t91 263.5t119.5 235.5t141 252t132.5 255.5h-697l-71 -178h-54z" />
<glyph unicode="8" horiz-adv-x="1198" d="M102 342q0 76 25 138t72 106t96.5 73.5t116.5 57.5q-124 51 -189 129t-65 215q0 81 24.5 148.5t76 121.5t140.5 84.5t209 30.5q212 0 318 -94t106 -248q0 -68 -20.5 -124t-58 -95.5t-78 -66.5t-91.5 -50q73 -31 124.5 -61.5t96 -75t67 -105.5t22.5 -139q0 -88 -28.5 -159 t-88.5 -126t-160 -84.5t-235 -29.5q-241 0 -360.5 95.5t-119.5 258.5zM285 356q0 -160 81 -237.5t228 -77.5q154 0 241 77.5t87 221.5q0 31 -5 58t-12.5 49t-22.5 41.5t-30 35t-40 31t-47 27t-56.5 25.5t-63 24.5t-72.5 25.5q-40 12 -94 33q-98 -60 -146 -136t-48 -198z M324 1120q0 -52 14 -92t36.5 -68.5t65.5 -53.5t85.5 -42.5t111.5 -40.5l70 -24q75 54 113 124.5t38 174.5q0 143 -69 219t-193 76q-126 0 -199 -74.5t-73 -198.5z" />
<glyph unicode="9" horiz-adv-x="1181" d="M96 993q0 206 136 328.5t352 122.5q246 0 371.5 -163t125.5 -464q0 -164 -39 -296.5t-110 -226t-175.5 -159t-231.5 -100.5t-281 -45l-35 33q169 23 292 78t199.5 140.5t116.5 191t51 241.5q-114 -111 -309 -111q-208 0 -335.5 115.5t-127.5 314.5zM301 995 q0 -179 84.5 -273.5t214.5 -94.5q94 0 166 43t108 114q0 607 -284 607q-131 0 -210 -107.5t-79 -288.5z" />
<glyph unicode=":" horiz-adv-x="405" d="M84 111q0 51 33.5 84.5t83.5 33.5q52 0 86.5 -33.5t34.5 -84.5t-34.5 -85t-86.5 -34q-50 0 -83.5 34t-33.5 85zM84 870q0 52 33.5 86.5t83.5 34.5q53 0 87 -34.5t34 -86.5q0 -51 -34.5 -84.5t-86.5 -33.5q-50 0 -83.5 33.5t-33.5 84.5z" />
<glyph unicode=";" horiz-adv-x="405" d="M84 115q0 51 33 82.5t86 31.5q50 0 84.5 -33.5t34.5 -101.5q0 -47 -18 -95.5t-52.5 -94t-57.5 -71.5t-59 -62l-31 28q40 39 71.5 95t31.5 86q0 14 -6 20q-50 0 -83.5 32.5t-33.5 82.5zM84 870q0 52 33.5 86.5t83.5 34.5q53 0 87 -34.5t34 -86.5q0 -51 -34.5 -84.5 t-86.5 -33.5q-50 0 -83.5 33.5t-33.5 84.5z" />
<glyph unicode="&#x3c;" horiz-adv-x="931" d="M102 537v53l695 323l28 -65l-608 -285l608 -284l-28 -64z" />
<glyph unicode="=" horiz-adv-x="931" d="M82 424v72h766v-72h-766zM82 733v72h766v-72h-766z" />
<glyph unicode="&#x3e;" horiz-adv-x="931" d="M102 279l613 284l-613 285l31 65l692 -323v-53l-692 -322z" />
<glyph unicode="?" horiz-adv-x="1007" d="M82 1174q0 117 113 192.5t294 75.5q201 0 319 -90.5t118 -247.5q0 -66 -22.5 -122t-58 -98t-79 -81.5t-87 -80t-79 -85.5t-58 -107t-22.5 -135h-63q-10 95 -1.5 160.5t32 121.5t53.5 94.5t62.5 80.5t59.5 79.5t44.5 91t17.5 114.5q0 117 -65.5 184.5t-182.5 67.5 q-108 0 -180 -64v-158q0 -50 -31 -81t-78 -31q-46 0 -76 29.5t-30 89.5zM375 111q0 51 34.5 84.5t86.5 33.5q50 0 84 -33.5t34 -84.5t-33.5 -85t-84.5 -34q-52 0 -86.5 34t-34.5 85z" />
<glyph unicode="@" horiz-adv-x="1785" d="M119 401q0 337 207.5 530t591.5 193q189 0 333.5 -49.5t233.5 -139t133.5 -209t44.5 -265.5q0 -221 -99 -346t-280 -125q-172 0 -192 104l-7 4q-49 -51 -121.5 -79.5t-150.5 -28.5q-161 0 -247.5 111t-86.5 294q0 212 115 323t328 111q116 0 231 -41l82 43l29 -24v-680 q0 -78 65 -78q84 0 131 105.5t47 281.5q0 633 -589 633q-308 0 -471.5 -173t-163.5 -488q0 -154 41 -276t124.5 -212.5t218.5 -139t314 -48.5q166 0 311.5 43t237.5 133l26 -29q-99 -99 -264 -156t-364 -57q-377 0 -593 195t-216 540zM668 414q0 -166 59.5 -260.5 t167.5 -94.5q53 0 103.5 22.5t86.5 65.5v588q-80 47 -167 47q-122 0 -186 -93.5t-64 -274.5z" />
<glyph unicode="A" d="M20 0v39l134 39l591 1356h82l578 -1356l133 -39v-39h-477v39l129 39l-166 397h-635l-172 -397l174 -39v-39h-371zM414 532h583l-286 687z" />
<glyph unicode="B" horiz-adv-x="1347" d="M59 0v33l134 33v1300l-134 35v33h635q219 0 353.5 -97t134.5 -262q0 -129 -82.5 -217t-225.5 -123q169 -31 268 -125.5t99 -234.5q0 -173 -150.5 -274t-396.5 -101h-635zM401 55h258q165 0 265 84.5t100 241.5q0 158 -100 242t-265 84h-258v-652zM401 762h258 q139 0 223.5 79t84.5 228q0 148 -84.5 226.5t-223.5 78.5h-258v-612z" />
<glyph unicode="C" horiz-adv-x="1456" d="M104 715q0 336 192 533.5t511 197.5q115 0 224.5 -29.5t189.5 -85.5l79 47l23 -24l14 -281h-51q-21 77 -62 135t-86.5 90t-101.5 52t-100.5 26t-91.5 6q-245 0 -380.5 -170t-135.5 -491q0 -198 58 -342.5t182.5 -227.5t305.5 -83q275 0 435 163l34 -32 q-208 -211 -534 -211q-322 0 -513.5 196t-191.5 531z" />
<glyph unicode="D" horiz-adv-x="1497" d="M59 0v33l134 33v1300l-134 35v33h635q153 0 281.5 -49.5t220 -140.5t142.5 -226t51 -301q0 -333 -191.5 -525t-503.5 -192h-635zM401 55h293q214 0 343.5 170.5t129.5 489.5t-129.5 489t-343.5 170h-293v-1319z" />
<glyph unicode="E" horiz-adv-x="1280" d="M59 0v33l134 33v1300l-134 35v33h1080l12 -258h-51l-86 198h-613v-608h488l41 154h47v-363h-47l-41 152h-488v-654h633l86 203h51l-12 -258h-1100z" />
<glyph unicode="F" horiz-adv-x="1234" d="M59 0v39l134 45v1282l-134 35v33h1055l12 -258h-51l-86 198h-588v-610h453l41 151h47v-360h-47l-41 152h-453v-625l195 -43v-39h-537z" />
<glyph unicode="G" horiz-adv-x="1544" d="M104 715q0 336 192.5 533.5t512.5 197.5q115 0 224.5 -29.5t191.5 -85.5l78 47l24 -24l14 -281h-53q-21 77 -62 135t-86.5 90t-101.5 52t-100.5 26t-91.5 6q-247 0 -382.5 -170.5t-135.5 -494.5q0 -197 56.5 -343.5t174 -230.5t285.5 -84q177 0 301 91v460l-133 39v39 h471v-39l-129 -41v-534l-29 -27l-102 51q-173 -110 -412 -110q-324 0 -515.5 195.5t-191.5 531.5z" />
<glyph unicode="H" horiz-adv-x="1560" d="M59 0v39l134 45v1272l-134 39v39h476v-39l-134 -41v-598h756v600l-133 39v39h475v-39l-133 -41v-1276l133 -39v-39h-475v39l133 45v614h-756v-620l134 -39v-39h-476z" />
<glyph unicode="I" horiz-adv-x="595" d="M61 0v39l134 45v1272l-134 39v39h469v-39l-129 -41v-1276l129 -39v-39h-469z" />
<glyph unicode="J" horiz-adv-x="595" d="M49 -438q146 174 146 454v1340l-134 39v39h467v-39l-129 -41v-1338q0 -311 -315 -489z" />
<glyph unicode="K" horiz-adv-x="1409" d="M53 0v39l133 45v1272l-133 39v39h475v-39l-133 -41v-701l668 703l-168 39v39h391v-39l-139 -39l-438 -465l540 -817l125 -35v-39h-315l-496 750l-168 -179v-493l133 -39v-39h-475z" />
<glyph unicode="L" horiz-adv-x="1218" d="M59 0v33l134 33v1290l-134 39v39h476v-39l-134 -41v-1299h570l86 203h51l-12 -258h-1037z" />
<glyph unicode="M" horiz-adv-x="1900" d="M39 0v29l133 45l94 1282l-131 39v39h299l522 -1219l519 1219h290v-39l-129 -41l97 -1276l129 -39v-39h-471v39l133 45l-84 1124l-520 -1208h-80l-523 1210l-88 -1142l129 -41v-27h-319z" />
<glyph unicode="N" horiz-adv-x="1460" d="M59 0v29l134 45v1282l-134 39v39h347l802 -1135v1067l-133 39v29h326v-29l-133 -41v-1364h-80l-938 1323v-1255l133 -41v-27h-324z" />
<glyph unicode="O" horiz-adv-x="1589" d="M104 717q0 333 191 531t500 198q308 0 498 -198t190 -531q0 -222 -87.5 -388t-242.5 -253.5t-358 -87.5t-359.5 87.5t-244 253.5t-87.5 388zM328 715q0 -323 128 -498.5t339 -175.5q210 0 338.5 175.5t128.5 498.5t-128.5 500.5t-338.5 177.5q-211 0 -339 -177t-128 -501 z" />
<glyph unicode="P" horiz-adv-x="1267" d="M59 0v39l134 45v1282l-134 35v33h572q238 0 385 -111.5t147 -302.5q0 -189 -147 -299.5t-385 -110.5h-152l-26 27v29h151q154 0 247 91t93 263t-93 263t-247 91h-203v-1292l201 -43v-39h-543z" />
<glyph unicode="Q" horiz-adv-x="1589" d="M104 717q0 333 191 531t500 198q308 0 498 -198t190 -531q0 -283 -139 -469t-375 -236q40 -20 143.5 -80.5t170 -86t134.5 -25.5q97 0 144 47l24 -23q-111 -108 -278 -108q-60 0 -120.5 12.5t-106.5 28.5t-106 47.5t-94.5 53t-97 61.5t-90.5 57q-268 31 -428 223.5 t-160 497.5zM328 715q0 -323 127.5 -496.5t339.5 -173.5q211 0 339 174t128 496q0 323 -128.5 500.5t-338.5 177.5q-211 0 -339 -177t-128 -501z" />
<glyph unicode="R" horiz-adv-x="1355" d="M59 0v39l134 45v1282l-134 35v33h613q223 0 360 -104.5t137 -285.5q0 -152 -99.5 -250t-270.5 -122q75 -34 155 -176l240 -422l127 -35v-39h-307l-373 659h-240v-581l134 -39v-39h-476zM401 717h242q139 0 223 85t84 245q0 158 -84 242.5t-223 84.5h-242v-657z" />
<glyph unicode="S" horiz-adv-x="1204" d="M106 336h54q20 -86 64 -147t102.5 -92t116.5 -44.5t122 -13.5q163 0 259 78.5t96 226.5q0 44 -9 78.5t-31.5 61.5t-47.5 46.5t-71.5 39.5t-87.5 34t-110 35q-174 52 -242 86q-153 78 -189 219q-13 49 -13 107q0 84 27 154.5t81.5 125t145.5 85t211 30.5q189 0 344 -90 l69 51l23 -23l14 -288h-53q-19 86 -60 147.5t-94.5 92.5t-104.5 44t-106 13q-146 0 -232.5 -77t-86.5 -208q0 -32 5 -58t18 -47.5t25.5 -38t39 -32.5t45.5 -26.5t57.5 -24.5t62.5 -22t73 -23q68 -22 104.5 -34.5t95 -36.5t91 -45.5t73 -55.5t61 -71t35.5 -88.5t15 -111.5 q0 -89 -29.5 -161t-90 -127.5t-159.5 -86t-231 -30.5q-215 0 -371 90l-72 -55l-24 22z" />
<glyph unicode="T" horiz-adv-x="1378" d="M72 1171l12 263h1208l13 -258h-52l-86 198h-372v-1296l133 -39v-39h-475v39l133 45v1290h-375l-86 -203h-53z" />
<glyph unicode="U" horiz-adv-x="1507" d="M59 1395v39h476v-39l-134 -41v-826q0 -214 117 -331t309 -117q195 0 315 118.5t120 329.5v838l-134 39v29h320v-29l-133 -41v-836q0 -249 -154.5 -393.5t-406.5 -144.5t-406.5 145t-154.5 393v828z" />
<glyph unicode="V" d="M20 1395v39h482v-39l-135 -39l487 -1141l485 1141l-174 39v39h373v-39l-135 -39l-582 -1356h-82l-585 1356z" />
<glyph unicode="W" horiz-adv-x="2422" d="M20 1395v39h482v-39l-135 -39l469 -1141l342 862l-119 279l-131 39v39h479v-39l-133 -39l467 -1141l463 1141l-174 39v39h372v-39l-135 -39l-561 -1356h-80l-418 1006l-409 -1006h-80l-565 1356z" />
<glyph unicode="X" horiz-adv-x="1519" d="M39 0v39l137 37l486 635l-474 647l-129 37v39h486v-39l-131 -37l401 -551l410 551l-166 37v39h373v-39l-140 -37l-446 -594l508 -688l129 -37v-39h-486v39l131 37l-434 590l-448 -590l166 -37v-39h-373z" />
<glyph unicode="Y" horiz-adv-x="1460" d="M20 1395v39h486v-39l-131 -37l426 -682l432 682l-166 37v39h373v-39l-142 -37l-473 -746v-534l131 -39v-39h-473v39l133 45v526l-466 748z" />
<glyph unicode="Z" horiz-adv-x="1282" d="M98 0v41l850 1333h-696l-86 -203h-53l12 263h1049v-45l-848 -1334h731l88 213h51l-10 -268h-1088z" />
<glyph unicode="[" horiz-adv-x="604" d="M147 -410v1946h394v-39l-211 -39v-1790l211 -39v-39h-394z" />
<glyph unicode="\" horiz-adv-x="716" d="M4 1536h78l631 -1741h-78z" />
<glyph unicode="]" horiz-adv-x="604" d="M61 -371l213 39v1790l-213 39v39h396v-1946h-396v39z" />
<glyph unicode="^" horiz-adv-x="915" d="M76 1008l368 434h27l367 -434l-31 -33l-350 311l-348 -311z" />
<glyph unicode="_" horiz-adv-x="1286" d="M4 -102h1278v-72h-1278v72z" />
<glyph unicode="`" horiz-adv-x="577" d="M84 1296l117 117l291 -287l-31 -30z" />
<glyph unicode="a" horiz-adv-x="1099" d="M102 215q0 40 8 72.5t28 59t43 47t64.5 38.5t80 31t101.5 28t117.5 26t139.5 28q7 1 10.5 2t9.5 2t11 2v180q0 92 -55 149.5t-150 57.5q-89 0 -168 -51v-135q0 -50 -30 -80.5t-76 -30.5q-43 0 -74 29.5t-31 81.5q0 71 54.5 126t143 83t193.5 28q184 0 290 -78.5 t106 -201.5v-600q0 -27 10.5 -38.5t34.5 -11.5q38 0 63 21l21 -19q-67 -67 -195 -67q-61 0 -94 27.5t-39 89.5l-6 8q-65 -60 -159.5 -94.5t-195.5 -34.5q-130 0 -193 59.5t-63 165.5zM301 238q0 -84 42 -127t120 -43q68 0 136 30t116 78v322q-208 -39 -272 -62 q-99 -36 -127 -107q-15 -38 -15 -91z" />
<glyph unicode="b" horiz-adv-x="1198" d="M59 1444v37l297 39l29 -29v-508l-6 -115l6 -6q58 61 145.5 95t182.5 34q192 0 292.5 -131.5t100.5 -351.5q0 -255 -136 -386.5t-397 -131.5q-221 0 -391 76v1349zM385 88q89 -47 205 -47q149 0 229 113.5t80 328.5q0 199 -74.5 313.5t-203.5 114.5q-67 0 -130.5 -27.5 t-105.5 -80.5v-715z" />
<glyph unicode="c" horiz-adv-x="1110" d="M90 489q0 234 132.5 368t373.5 134q106 0 196 -27t148.5 -83.5t58.5 -132.5q0 -55 -31 -85t-75 -30q-48 0 -78.5 31t-30.5 81v142q-76 51 -184 51q-144 0 -223.5 -112.5t-79.5 -311.5q0 -215 95 -333t270 -118q177 0 286 109l35 -35q-147 -147 -393 -147 q-236 0 -368 134.5t-132 364.5z" />
<glyph unicode="d" horiz-adv-x="1198" d="M90 471q0 249 129 384.5t359 135.5q137 0 235 -57v481l-123 29v37l297 39l29 -29v-1395l117 -37v-43l-291 -26l-29 26l6 95l-6 8q-58 -61 -145.5 -95t-182.5 -34q-192 0 -293.5 131.5t-101.5 349.5zM297 494q0 -197 75.5 -310.5t205.5 -113.5q67 0 130.5 27.5t104.5 80.5 v701q-92 59 -207 59q-146 0 -227.5 -114.5t-81.5 -329.5z" />
<glyph unicode="e" horiz-adv-x="1116" d="M90 485q0 232 138 369t354 137q192 0 313 -108.5t121 -274.5q0 -45 -8 -76l-29 -28h-682q3 -438 371 -438q183 0 286 106l37 -35q-147 -147 -393 -147q-242 0 -375 136t-133 359zM297 553l530 25q0 171 -63 265.5t-174 94.5q-117 0 -200.5 -104.5t-92.5 -280.5z" />
<glyph unicode="f" horiz-adv-x="770" d="M59 0v39l123 43v842h-123v39l123 32v195q0 150 93.5 236.5t263.5 86.5q124 0 206 -52t82 -142q0 -51 -26 -78t-68 -27q-43 0 -73.5 31t-30.5 78v115q-34 24 -86 24q-74 0 -116 -72t-42 -198v-209h340v-59h-340v-844l186 -41v-39h-512z" />
<glyph unicode="g" horiz-adv-x="1159" d="M68 -272q0 71 53 136t141 116q-137 41 -137 188q0 68 30.5 123t98.5 123q-131 88 -131 245q0 150 116.5 239t303.5 89q21 0 71 -4h439v-39l-131 -41h-82q123 -90 123 -244q0 -148 -116 -234.5t-304 -86.5q-147 0 -250 53q-49 -68 -49 -131q0 -108 157 -108h318 q336 0 336 -271q0 -169 -141 -258.5t-422 -89.5q-204 0 -314 48.5t-110 146.5zM244 -227q0 -102 72.5 -144.5t211.5 -42.5q181 0 285.5 59.5t104.5 166.5q0 66 -43.5 108.5t-135.5 42.5h-348q-23 0 -63 4q-84 -93 -84 -194zM319 664q0 -134 62 -206.5t162 -72.5 q101 0 162 73t61 206q0 130 -61 202t-162 72q-100 0 -162 -72t-62 -202z" />
<glyph unicode="h" horiz-adv-x="1257" d="M59 0v39l123 43v1333l-123 29v37l297 39l29 -29v-508l-6 -127l6 -6q68 66 178 103.5t207 37.5q151 0 228 -94t77 -250v-571l123 -37v-39h-438v39l112 43v543q0 133 -48 209.5t-146 76.5q-69 0 -153.5 -32t-139.5 -88v-715l111 -37v-39h-437z" />
<glyph unicode="i" horiz-adv-x="567" d="M59 0v39l123 43v803l-116 30v43l290 39l29 -28v-893l123 -37v-39h-449zM133 1278q0 57 38.5 96t96.5 39t96.5 -39t38.5 -96q0 -60 -38 -98.5t-97 -38.5t-97 38.5t-38 98.5z" />
<glyph unicode="j" horiz-adv-x="567" d="M39 -438q143 170 143 454v869l-116 30v43l290 39l29 -28v-953q0 -309 -311 -489zM133 1278q0 57 38.5 96t96.5 39t96.5 -39t38.5 -96q0 -60 -38 -98.5t-97 -38.5t-97 38.5t-38 98.5z" />
<glyph unicode="k" horiz-adv-x="1144" d="M59 0v39l123 43v1333l-123 29v37l297 39l29 -29v-1032l446 448l-159 37v39h370v-39l-129 -37l-258 -262l346 -571l117 -35v-39h-287l-315 512l-131 -133v-303l123 -37v-39h-449z" />
<glyph unicode="l" horiz-adv-x="567" d="M59 0v39l123 43v1333l-123 29v37l297 39l29 -29v-1415l123 -37v-39h-449z" />
<glyph unicode="m" horiz-adv-x="1806" d="M59 0v39l123 43v803l-116 30v43l290 39l29 -28l-6 -113l6 -6q62 67 160 104t184 37q173 0 236 -149q73 70 181 109.5t202 39.5q139 0 206.5 -93t67.5 -251v-571l123 -37v-39h-430v39l106 43v543q0 133 -44.5 209.5t-135.5 76.5q-59 0 -132.5 -29.5t-125.5 -82.5 q21 -67 21 -152v-571l106 -37v-39h-416v39l107 43v543q0 131 -43.5 208.5t-128.5 77.5q-58 0 -127.5 -33t-116.5 -90v-712l107 -37v-39h-433z" />
<glyph unicode="n" horiz-adv-x="1257" d="M59 0v39l123 43v803l-116 30v43l290 39l29 -28l-6 -113l6 -6q71 67 179.5 104t205.5 37q151 0 228 -94t77 -250v-571l123 -37v-39h-438v39l112 43v543q0 132 -51 209t-151 77q-70 0 -151 -32t-134 -88v-715l111 -37v-39h-437z" />
<glyph unicode="o" horiz-adv-x="1175" d="M90 489q0 229 137.5 365.5t360.5 136.5t360 -136.5t137 -365.5q0 -228 -137 -363.5t-360 -135.5t-360.5 135.5t-137.5 363.5zM297 489q0 -214 80 -330t211 -116t210 116t79 330q0 216 -79 332.5t-210 116.5t-211 -117t-80 -332z" />
<glyph unicode="p" horiz-adv-x="1198" d="M59 -422l123 43v1264l-116 30v43l290 39l29 -28l-6 -101l6 -6q58 61 145.5 95t182.5 34q192 0 292.5 -131.5t100.5 -351.5q0 -248 -127.5 -383t-355.5 -135q-146 0 -238 55v-426l186 -41v-39h-512v39zM385 100q92 -59 207 -59q146 0 226.5 114.5t80.5 329.5 q0 198 -74.5 312t-203.5 114q-65 0 -128.5 -27.5t-107.5 -80.5v-703z" />
<glyph unicode="q" horiz-adv-x="1171" d="M90 473q0 253 136 385.5t390 132.5q144 0 275 -47l96 53l29 -28v-1348l123 -43v-39h-449v39l123 37v385l6 113l-6 6q-58 -61 -145.5 -95t-182.5 -34q-192 0 -293.5 132t-101.5 351zM297 494q0 -197 75.5 -310.5t205.5 -113.5q67 0 130.5 27.5t104.5 80.5v705 q-91 55 -207 55q-147 0 -228 -114.5t-81 -329.5z" />
<glyph unicode="r" horiz-adv-x="968" d="M59 0v39l123 43v803l-116 30v43l290 39l29 -28l-6 -178l6 -7q4 8 12 22t36 50t59 63t80.5 49.5t101.5 22.5q93 0 156 -58.5t63 -148.5q0 -60 -30.5 -90t-74.5 -30q-49 0 -79.5 31t-30.5 81v142q-18 12 -47 12q-43 0 -84 -24.5t-69 -59t-50 -69t-32 -59.5l-11 -24v-614 l186 -41v-39h-512z" />
<glyph unicode="s" horiz-adv-x="923" d="M104 37v221h56q52 -215 274 -215q110 0 178 48.5t68 139.5q0 24 -6.5 44t-15 34.5t-28 28t-35 22t-47 19t-53 16.5t-63.5 17h-1l-1 1h-1h-1h-1l-1 1h-1h-1h-1l-1 1q-140 38 -196 71q-120 72 -120 221q0 131 85 206.5t266 75.5q150 0 260 -61l39 35l22 -23v-217h-57 q-48 215 -248 215q-96 0 -154.5 -49t-58.5 -127q0 -31 11 -55t26 -39.5t47.5 -30.5t58 -24t74.5 -23q35 -10 51.5 -15t50 -16t50.5 -18.5t45.5 -20.5t44 -25.5t36.5 -30t32.5 -36.5t22.5 -42t16 -51t5 -59q0 -134 -94 -210t-297 -76q-153 0 -274 59l-41 -35z" />
<glyph unicode="t" horiz-adv-x="792" d="M57 924v30q196 59 299 260l29 -28v-203h311v-59h-311v-660q0 -95 43 -148t125 -53q87 0 147 60l31 -31q-102 -102 -262 -102q-137 0 -212 74t-75 200v660h-125z" />
<glyph unicode="u" horiz-adv-x="1251" d="M66 915v43l290 39l29 -28v-654q0 -113 50.5 -179t148.5 -66q71 0 150.5 33t131.5 94v688l-116 30v43l292 39l27 -28v-873l115 -37v-43l-289 -26l-29 26l6 111l-6 6q-70 -69 -175 -106t-204 -37q-149 0 -227 84t-78 221v590z" />
<glyph unicode="v" horiz-adv-x="1206" d="M29 944v39h448v-39l-121 -37l318 -696l317 696l-164 37v39h351v-39l-123 -37l-416 -907h-74l-415 907z" />
<glyph unicode="w" horiz-adv-x="1794" d="M29 944v39h438v-39l-115 -37l299 -710l221 526l-75 184l-117 37v39h440v-39l-121 -37l285 -710l291 710l-162 37v39h350v-39l-123 -37l-380 -907h-80l-277 651l-280 -651h-80l-393 907z" />
<glyph unicode="x" horiz-adv-x="1181" d="M43 0v39l129 37l322 403l-328 428l-115 37v39h453v-39l-119 -37l262 -342l271 342l-156 37v39h352v-39l-127 -37l-309 -385l346 -446l113 -37v-39h-451v39l121 37l-281 360l-286 -360l157 -37v-39h-354z" />
<glyph unicode="y" horiz-adv-x="1208" d="M29 944v39h448v-39l-121 -37l318 -696l317 696l-164 37v39h353v-39l-123 -37l-416 -907q-44 -96 -71 -151.5t-60 -116.5t-56.5 -92t-52.5 -59t-58 -38t-64 -10q-67 0 -118.5 35t-51.5 110q0 53 27 80t71 27q46 0 74 -27t28 -71v-72q8 -4 23 -4q45 0 97.5 86.5 t139.5 290.5l-419 919z" />
<glyph unicode="z" horiz-adv-x="1005" d="M92 0v41l596 887h-463l-59 -178h-53v233h788v-45l-594 -885h490l59 180h53v-233h-817z" />
<glyph unicode="{" horiz-adv-x="753" d="M84 539v51q89 0 143 118t54 334q0 230 108 367t283 137v-53q-90 0 -144.5 -117.5t-54.5 -333.5q0 -182 -66 -307t-182 -170q116 -46 182 -171t66 -306q0 -217 54.5 -335t144.5 -118v-51q-175 0 -283 136.5t-108 367.5q0 216 -54 333.5t-143 117.5z" />
<glyph unicode="|" horiz-adv-x="436" d="M182 -461v1997h72v-1997h-72z" />
<glyph unicode="}" horiz-adv-x="753" d="M84 -365q89 0 143 118t54 335q0 181 66 306t181 171q-115 45 -181 170t-66 307q0 216 -54 333.5t-143 117.5v53q173 0 281 -137t108 -367q0 -216 54.5 -334t144.5 -118v-51q-90 0 -144.5 -117.5t-54.5 -333.5q0 -231 -107.5 -367.5t-281.5 -136.5v51z" />
<glyph unicode="~" horiz-adv-x="974" d="M76 528q108 108 176.5 157.5t122.5 49.5q40 0 87.5 -27t96 -54t92.5 -27q50 0 107 28.5t106 77.5l33 -31q-206 -210 -309 -210q-38 0 -85.5 27t-98 54t-95.5 27q-96 0 -200 -104z" />
<glyph unicode="&#xa1;" horiz-adv-x="428" d="M90 -88q0 16 4.5 45t13.5 94.5t20 167.5t25.5 302.5t28.5 461.5h64q14 -261 28.5 -462t25.5 -302.5t20 -167.5t13.5 -95t4.5 -46q0 -51 -35.5 -86t-89.5 -35q-53 0 -88 35.5t-35 87.5zM94 1253q0 51 34.5 85t84.5 34q52 0 86.5 -34t34.5 -85t-34.5 -85.5t-86.5 -34.5 q-50 0 -84.5 34.5t-34.5 85.5z" />
<glyph unicode="&#xa2;" horiz-adv-x="1110" d="M90 489q0 223 120.5 355.5t340.5 144.5v96h59v-94q103 -2 190 -29.5t143 -83.5t56 -130q0 -55 -31 -85t-75 -30q-48 0 -78.5 31t-30.5 81v142q-72 48 -174 51v-872q24 -3 52 -3q177 0 286 109l35 -35q-141 -141 -373 -147v-92h-59v94q-219 10 -340 143t-121 354zM297 514 q0 -178 65.5 -290t188.5 -146v856q-121 -20 -187.5 -130t-66.5 -290z" />
<glyph unicode="&#xa3;" horiz-adv-x="1171" d="M57 690v31l125 24v254q0 206 120.5 324.5t336.5 118.5q102 0 188 -27.5t141.5 -83.5t55.5 -131q0 -57 -30 -87t-74 -30q-48 0 -78.5 31t-30.5 82v141q-66 52 -162 52q-124 0 -194 -97t-70 -266v-281h422v-55h-422q0 -125 -25 -265t-69 -263q86 47 151 47q42 0 90.5 -16.5 t85 -36t86.5 -36t95 -16.5q64 0 137.5 28.5t138.5 78.5l33 -33q-265 -207 -393 -207q-41 0 -89 16.5t-85.5 37t-89 37t-97.5 16.5q-126 0 -258 -103l-33 31l119 88v596h-125z" />
<glyph unicode="&#xa4;" horiz-adv-x="1062" d="M113 244l141 141q-74 93 -74 229q0 137 72 230l-139 139l49 49l137 -139q96 80 231 80q137 0 234 -78l135 137l49 -49l-137 -137q76 -92 76 -232q0 -141 -78 -231l139 -139l-49 -47l-139 139q-92 -76 -230 -76q-137 0 -229 76l-141 -139zM252 614q0 -126 76 -204t202 -78 q127 0 205 78t78 204q0 129 -78 209t-205 80q-126 0 -202 -80t-76 -209z" />
<glyph unicode="&#xa5;" horiz-adv-x="1460" d="M20 1395v39h486v-39l-131 -37l426 -682l432 682l-166 37v39h373v-39l-142 -37l-473 -746v-65h279v-72h-279v-170h279v-69h-279v-158l131 -39v-39h-473v39l133 45v152h-278v69h278v170h-278v72h278v63l-466 748z" />
<glyph unicode="&#xa6;" horiz-adv-x="436" d="M182 434h72v-895h-72v895zM182 639v897h72v-897h-72z" />
<glyph unicode="&#xa7;" horiz-adv-x="1007" d="M82 53q0 58 30 88.5t76 30.5t77.5 -32t31.5 -81v-157q74 -66 180 -66q119 0 187.5 68t68.5 174q0 72 -35 125t-91.5 84t-124.5 55t-135.5 47.5t-124 53t-91.5 80t-35 120.5q0 129 99 256q-105 82 -105 213q0 152 115 241t315 89q179 0 288.5 -76t109.5 -192 q0 -59 -30 -89t-75 -30q-48 0 -79.5 31t-31.5 81v158q-72 64 -172 64q-116 0 -181.5 -67t-65.5 -171q0 -73 34.5 -127t90 -86t122.5 -57.5t134 -50.5t122.5 -55.5t90 -82t34.5 -121.5q0 -117 -94 -241q109 -81 109 -215q0 -151 -119.5 -240.5t-319.5 -89.5 q-180 0 -292.5 75.5t-112.5 192.5zM215 715q0 -64 36.5 -110.5t99.5 -76t129.5 -52t145 -51.5t126.5 -60q43 79 43 137q0 54 -27 96t-69 68.5t-101 52t-115 43t-120 44t-107 54.5q-41 -78 -41 -145z" />
<glyph unicode="&#xa8;" horiz-adv-x="593" d="M-51 1239q0 53 34.5 87t86.5 34q53 0 88 -34.5t35 -86.5t-35 -86.5t-88 -34.5q-52 0 -86.5 34t-34.5 87zM403 1239q0 53 34.5 87t86.5 34q53 0 88 -34.5t35 -86.5t-35 -86.5t-88 -34.5q-52 0 -86.5 34t-34.5 87z" />
<glyph unicode="&#xa9;" horiz-adv-x="1630" d="M88 717q0 197 97.5 364.5t265 265t364.5 97.5t364.5 -97.5t265 -265t97.5 -364.5t-97.5 -364.5t-265 -265t-364.5 -97.5t-364.5 97.5t-265 265t-97.5 364.5zM162 717q0 -177 87.5 -327.5t238 -238.5t327.5 -88t327.5 88t238 238.5t87.5 327.5q0 133 -52 253.5t-139.5 208 t-208 139.5t-253.5 52t-253.5 -52t-208 -139.5t-139.5 -208t-52 -253.5zM467 717q0 168 96.5 267t257.5 99q121 0 201 -53l45 25l14 -13l9 -147h-31q-19 60 -59 96t-76.5 46t-77.5 10q-115 0 -177.5 -81.5t-62.5 -244.5q0 -149 64 -235.5t196 -86.5q131 0 207 82l21 -20 q-114 -109 -271 -109q-163 0 -259.5 99t-96.5 266z" />
<glyph unicode="&#xaa;" horiz-adv-x="583" d="M55 1051q0 52 38 83.5t85.5 44.5t170.5 38q6 1 9 2v90q0 45 -24 71.5t-66 26.5q-33 0 -73 -21v-67q0 -30 -17.5 -48t-44.5 -18q-26 0 -43.5 16.5t-17.5 47.5q0 55 58.5 88t143.5 33q99 0 155 -40.5t56 -103.5v-295q0 -22 23 -22q18 0 31 10l10 -10q-37 -37 -115 -37 q-33 0 -51 12.5t-21 44.5l-4 4q-72 -65 -176 -65q-127 0 -127 115zM178 1063q0 -38 19 -59t53 -21q60 0 108 51v156q-41 -8 -57.5 -12t-43.5 -11.5t-37 -15t-22.5 -20t-16 -29t-3.5 -39.5z" />
<glyph unicode="&#xab;" horiz-adv-x="856" d="M78 539v26l325 324l33 -33l-200 -303l200 -307l-33 -31zM397 539v26l328 324l31 -33l-201 -303l201 -307l-31 -31z" />
<glyph unicode="&#xac;" horiz-adv-x="1034" d="M82 682v70h868v-277h-71v207h-797z" />
<glyph unicode="&#xad;" horiz-adv-x="630" d="M82 580v69h465v-69h-465z" />
<glyph unicode="&#xae;" horiz-adv-x="1630" d="M88 717q0 197 97.5 364.5t265 265t364.5 97.5t364.5 -97.5t265 -265t97.5 -364.5t-97.5 -364.5t-265 -265t-364.5 -97.5t-364.5 97.5t-265 265t-97.5 364.5zM162 717q0 -177 87.5 -327.5t238 -238.5t327.5 -88t327.5 88t238 238.5t87.5 327.5q0 133 -52 253.5t-139.5 208 t-208 139.5t-253.5 52t-253.5 -52t-208 -139.5t-139.5 -208t-52 -253.5zM512 379v24l68 25v629l-68 18v21h319q118 0 189.5 -52.5t71.5 -142.5q0 -75 -47.5 -123.5t-131.5 -62.5q41 -17 80 -88l113 -205l63 -21v-22h-178l-180 328h-98v-283l65 -23v-22h-266zM713 739h104 q64 0 101.5 40.5t37.5 121.5t-37.5 121.5t-101.5 40.5h-104v-324z" />
<glyph unicode="&#xaf;" horiz-adv-x="630" d="M61 1184v73h508v-73h-508z" />
<glyph unicode="&#xb0;" horiz-adv-x="544" d="M78 1247q0 89 53 143t139 54q88 0 142.5 -54t54.5 -143q0 -86 -54.5 -140t-142.5 -54q-86 0 -139 54t-53 140zM154 1247q0 -58 31 -92.5t85 -34.5t87.5 35t33.5 92t-33.5 93t-87.5 36q-53 0 -84.5 -35.5t-31.5 -93.5z" />
<glyph unicode="&#xb1;" horiz-adv-x="931" d="M82 104v70h766v-70h-766zM82 682v70h348v346h70v-346h348v-70h-348v-350h-70v350h-348z" />
<glyph unicode="&#xb2;" horiz-adv-x="573" d="M47 717v49q59 54 91 84.5t78.5 78.5t71.5 83t51 79.5t37 89t11 91.5q0 67 -31 102t-90 35q-51 0 -94 -35v-82q0 -30 -17 -48.5t-44 -18.5t-45.5 17t-18.5 50q0 64 63.5 105t163.5 41q110 0 173 -47.5t63 -137.5q0 -37 -12 -74.5t-28.5 -68.5t-48.5 -67.5t-57 -62 t-70.5 -62t-72.5 -57t-78 -58.5h314l35 94h32l-4 -180h-473z" />
<glyph unicode="&#xb3;" horiz-adv-x="628" d="M70 848q0 32 17.5 49.5t43.5 17.5q28 0 46 -18.5t18 -46.5v-80q41 -27 94 -27q68 0 109.5 42t41.5 122q0 85 -48.5 125.5t-135.5 40.5h-47v33h45q158 0 158 149q0 74 -33 113t-88 39q-51 0 -90 -29v-78q0 -29 -18 -47t-46 -18q-26 0 -43.5 17t-17.5 48q0 66 69.5 103 t161.5 37q106 0 170 -49.5t64 -133.5q0 -64 -41 -106.5t-111 -60.5q84 -17 132 -65.5t48 -119.5q0 -89 -72 -141.5t-190 -52.5q-60 0 -112.5 14.5t-88.5 46.5t-36 76z" />
<glyph unicode="&#xb4;" horiz-adv-x="577" d="M84 1126l291 287l117 -117l-375 -200z" />
<glyph unicode="&#xb5;" horiz-adv-x="1251" d="M66 915v43l290 39l29 -28v-654q0 -113 50.5 -179t148.5 -66q71 0 150.5 33t131.5 94v688l-116 30v43l292 39l27 -28v-873l115 -37v-43l-289 -26l-29 26l6 111l-6 6q-66 -68 -165.5 -105.5t-192.5 -37.5q-123 0 -189 69q17 -86 35 -148.5t26.5 -87t8.5 -36.5 q0 -44 -29 -73t-73 -29q-45 0 -75 29.5t-30 74.5v1096z" />
<glyph unicode="&#xb6;" horiz-adv-x="1032" d="M106 934q0 230 163.5 365t428.5 135h275v-39l-123 -39v-1305q0 -329 -311 -524l-35 35q194 180 194 489v385q-265 0 -428.5 134t-163.5 364z" />
<glyph unicode="&#xb7;" horiz-adv-x="405" d="M84 594q0 51 33.5 85t83.5 34q52 0 86.5 -34t34.5 -85t-34.5 -85t-86.5 -34q-50 0 -83.5 34t-33.5 85z" />
<glyph unicode="&#xb8;" horiz-adv-x="380" d="M59 -207l117 207h49l-51 -98q74 0 122 -21.5t48 -70.5q0 -50 -53 -117.5t-141 -151.5l-23 23q43 42 70.5 86t27.5 78q0 35 -37.5 50t-128.5 15z" />
<glyph unicode="&#xb9;" horiz-adv-x="413" d="M49 1374v27l211 41l14 -17v-665l86 -21v-22h-299v24l86 23v610h-98z" />
<glyph unicode="&#xba;" horiz-adv-x="608" d="M51 1188q0 114 70 182t182 68q115 0 184.5 -67.5t69.5 -182.5q0 -116 -69.5 -183t-184.5 -67q-112 0 -182 67.5t-70 182.5zM180 1188q0 -109 33.5 -165t89.5 -56q58 0 91.5 56t33.5 165q0 107 -34 164t-91 57q-56 0 -89.5 -57t-33.5 -164z" />
<glyph unicode="&#xbb;" horiz-adv-x="856" d="M98 246l201 307l-201 303l33 33l326 -324v-26l-326 -324zM418 246l203 307l-203 303l33 33l325 -324v-26l-325 -324z" />
<glyph unicode="&#xbc;" horiz-adv-x="1198" d="M49 1374v27l211 41l14 -17v-665l86 -21v-22h-299v24l86 23v610h-98zM229 0l631 1434h78l-631 -1434h-78zM627 154v22q89 159 133.5 281.5t44.5 259.5h127q0 -143 -67.5 -266t-194.5 -265h272v205l109 109l14 -17v-297h74v-32h-74v-111l61 -20v-23h-245v25l61 22v107h-315 z" />
<glyph unicode="&#xbd;" horiz-adv-x="1298" d="M49 1374v27l211 41l14 -17v-665l86 -21v-22h-299v24l86 23v610h-98zM229 0l631 1434h78l-631 -1434h-78zM752 0v49q59 54 91 84.5t78.5 78.5t71.5 83t51 79.5t37 89t11 91.5q0 137 -119 137q-51 0 -94 -35v-82q0 -30 -18 -48.5t-46 -18.5q-27 0 -44 17t-17 50 q0 64 63.5 105t163.5 41q110 0 173 -47t63 -137q0 -37 -12 -75t-28.5 -68.5t-49.5 -68t-57 -61.5t-70.5 -62.5t-72 -57.5t-77.5 -58h311l37 94h31l-4 -180h-473z" />
<glyph unicode="&#xbe;" horiz-adv-x="1337" d="M70 848q0 32 17.5 49.5t43.5 17.5q28 0 46 -18.5t18 -46.5v-80q41 -27 94 -27q68 0 109.5 42t41.5 122q0 85 -48.5 125.5t-135.5 40.5h-47v33h45q158 0 158 149q0 74 -33 113t-88 39q-51 0 -90 -29v-78q0 -29 -18 -47t-46 -18q-26 0 -43.5 17t-17.5 48q0 66 69.5 103 t161.5 37q106 0 170 -49.5t64 -133.5q0 -64 -41 -106.5t-111 -60.5q84 -17 132 -65.5t48 -119.5q0 -89 -72 -141.5t-190 -52.5q-60 0 -112.5 14.5t-88.5 46.5t-36 76zM371 0l630 1434h78l-630 -1434h-78zM768 154v22q89 159 133.5 281.5t44.5 259.5h127q0 -143 -67.5 -266 t-194.5 -265h272v205l109 109l14 -17v-297h74v-32h-74v-111l62 -20v-23h-246v25l61 22v107h-315z" />
<glyph unicode="&#xbf;" horiz-adv-x="1007" d="M82 174q0 75 22.5 139t58 110t78.5 89.5t86.5 89.5t79 97t58 124t22.5 160h64q10 -109 1.5 -184t-31.5 -139.5t-53 -109t-62.5 -93t-60 -91.5t-45 -104.5t-17.5 -132.5q0 -134 65.5 -211.5t181.5 -77.5q110 0 181 66v155q0 49 31 81t77 32t76.5 -30t30.5 -89 q0 -115 -113.5 -191.5t-290.5 -76.5q-203 0 -321.5 103t-118.5 284zM395 1253q0 51 34 85t85 34t86 -34t35 -85t-35 -85.5t-86 -34.5t-85 34.5t-34 85.5z" />
<glyph unicode="&#xc0;" d="M20 0v39l134 39l591 1356h82l578 -1356l133 -39v-39h-477v39l129 39l-166 397h-635l-172 -397l174 -39v-39h-371zM414 532h583l-286 687zM541 1726l116 117l291 -284l-33 -33z" />
<glyph unicode="&#xc1;" d="M20 0v39l134 39l591 1356h82l578 -1356l133 -39v-39h-477v39l129 39l-166 397h-635l-172 -397l174 -39v-39h-371zM414 532h583l-286 687zM623 1559l290 284l117 -117l-377 -200z" />
<glyph unicode="&#xc2;" d="M20 0v39l134 39l591 1356h82l578 -1356l133 -39v-39h-477v39l129 39l-166 397h-635l-172 -397l174 -39v-39h-371zM414 532h583l-286 687zM489 1559l283 284h27l280 -284l-30 -33l-265 162l-264 -162z" />
<glyph unicode="&#xc3;" d="M20 0v39l134 39l591 1356h82l578 -1356l133 -39v-39h-477v39l129 39l-166 397h-635l-172 -397l174 -39v-39h-371zM414 532h583l-286 687zM442 1604q89 89 147 130.5t103 41.5q29 0 60 -15t53.5 -32.5t55 -32.5t63.5 -15q84 0 174 93l32 -31q-178 -178 -260 -178 q-35 0 -72.5 23.5t-78 47t-80.5 23.5q-73 0 -164 -88z" />
<glyph unicode="&#xc4;" d="M20 0v39l134 39l591 1356h82l578 -1356l133 -39v-39h-477v39l129 39l-166 397h-635l-172 -397l174 -39v-39h-371zM414 532h583l-286 687zM434 1669q0 53 34.5 88t88.5 35q51 0 86 -35.5t35 -87.5t-35 -86.5t-86 -34.5q-54 0 -88.5 34t-34.5 87zM889 1669q0 53 34.5 88 t88.5 35q51 0 86 -35.5t35 -87.5t-35 -86.5t-86 -34.5q-54 0 -88.5 34t-34.5 87z" />
<glyph unicode="&#xc5;" d="M20 0v39l134 39l591 1356h82l578 -1356l133 -39v-39h-477v39l129 39l-166 397h-635l-172 -397l174 -39v-39h-371zM414 532h583l-286 687zM612 1671q0 76 48 121t124 45t124 -45t48 -121t-48 -121t-124 -45t-124 45t-48 121zM692 1671q0 -54 25.5 -86.5t66.5 -32.5 t65.5 32.5t24.5 86.5q0 55 -24.5 88t-65.5 33t-66.5 -33t-25.5 -88z" />
<glyph unicode="&#xc6;" horiz-adv-x="1724" d="M20 0v39l134 39l585 1356h844l12 -258h-53l-86 198h-586l107 -608h356l41 154h47v-363h-47l-41 152h-348l113 -654h381l86 203h51l-12 -258h-836v33l131 33l-72 409h-440l-170 -397l174 -39v-39h-371zM412 532h409l-119 687z" />
<glyph unicode="&#xc7;" horiz-adv-x="1456" d="M104 715q0 336 192 533.5t511 197.5q115 0 224.5 -29.5t189.5 -85.5l79 47l23 -24l14 -281h-51q-21 77 -62 135t-86.5 90t-101.5 52t-100.5 26t-91.5 6q-245 0 -380.5 -170t-135.5 -491q0 -198 58 -342.5t182.5 -227.5t305.5 -83q275 0 435 163l34 -32 q-199 -202 -507 -211l-48 -86q170 0 170 -92q0 -87 -194 -269l-21 23q44 42 71.5 86t27.5 78q0 35 -37.5 50t-128.5 15l108 197q-312 8 -496 202.5t-184 522.5z" />
<glyph unicode="&#xc8;" horiz-adv-x="1280" d="M59 0v33l134 33v1300l-134 35v33h1080l12 -258h-51l-86 198h-613v-608h488l41 154h47v-363h-47l-41 152h-488v-654h633l86 203h51l-12 -258h-1100zM395 1726l117 117l289 -284l-31 -33z" />
<glyph unicode="&#xc9;" horiz-adv-x="1280" d="M59 0v33l134 33v1300l-134 35v33h1080l12 -258h-51l-86 198h-613v-608h488l41 154h47v-363h-47l-41 152h-488v-654h633l86 203h51l-12 -258h-1100zM477 1559l289 284l117 -117l-375 -200z" />
<glyph unicode="&#xca;" horiz-adv-x="1280" d="M59 0v33l134 33v1300l-134 35v33h1080l12 -258h-51l-86 198h-613v-608h488l41 154h47v-363h-47l-41 152h-488v-654h633l86 203h51l-12 -258h-1100zM342 1559l283 284h28l281 -284l-33 -33l-262 162l-264 -162z" />
<glyph unicode="&#xcb;" horiz-adv-x="1280" d="M59 0v33l134 33v1300l-134 35v33h1080l12 -258h-51l-86 198h-613v-608h488l41 154h47v-363h-47l-41 152h-488v-654h633l86 203h51l-12 -258h-1100zM289 1669q0 53 35.5 88t87.5 35t86 -35t34 -88t-34 -87t-86 -34q-53 0 -88 34.5t-35 86.5zM743 1669q0 53 35.5 88 t87.5 35t86.5 -35t34.5 -88t-34.5 -87t-86.5 -34q-53 0 -88 34.5t-35 86.5z" />
<glyph unicode="&#xcc;" horiz-adv-x="595" d="M59 1726l117 117l291 -284l-33 -33zM61 0v39l134 45v1272l-134 39v39h469v-39l-129 -41v-1276l129 -39v-39h-469z" />
<glyph unicode="&#xcd;" horiz-adv-x="595" d="M61 0v39l134 45v1272l-134 39v39h469v-39l-129 -41v-1276l129 -39v-39h-469zM135 1559l291 284l115 -117l-375 -200z" />
<glyph unicode="&#xce;" horiz-adv-x="595" d="M2 1559l281 284h28l281 -284l-31 -33l-264 162l-264 -162zM61 0v39l134 45v1272l-134 39v39h469v-39l-129 -41v-1276l129 -39v-39h-469z" />
<glyph unicode="&#xcf;" horiz-adv-x="595" d="M-12 1669q0 53 35 88t88 35q52 0 86 -35t34 -88t-34 -87t-86 -34q-53 0 -88 34.5t-35 86.5zM61 0v39l134 45v1272l-134 39v39h469v-39l-129 -41v-1276l129 -39v-39h-469zM362 1669q0 53 35 88t88 35q52 0 86.5 -35t34.5 -88t-34 -87t-87 -34t-88 34.5t-35 86.5z" />
<glyph unicode="&#xd0;" horiz-adv-x="1497" d="M59 0v33l134 33v630h-132v31l132 27v612l-134 35v33h635q153 0 281.5 -49.5t220 -140.5t142.5 -226t51 -301q0 -333 -191.5 -525t-503.5 -192h-635zM401 55h293q214 0 343.5 170.5t129.5 489.5t-129.5 489t-343.5 170h-293v-620h347v-58h-347v-641z" />
<glyph unicode="&#xd1;" horiz-adv-x="1460" d="M59 0v29l134 45v1282l-134 39v39h347l802 -1135v1067l-133 39v29h326v-29l-133 -41v-1364h-80l-938 1323v-1255l133 -41v-27h-324zM387 1604q89 89 147 130.5t103 41.5q37 0 75 -24t77.5 -47.5t78.5 -23.5q84 0 174 93l33 -31q-178 -178 -260 -178q-41 0 -111 47t-120 47 q-73 0 -164 -88z" />
<glyph unicode="&#xd2;" horiz-adv-x="1589" d="M104 717q0 333 191 531t500 198q308 0 498 -198t190 -531q0 -222 -87.5 -388t-242.5 -253.5t-358 -87.5t-359.5 87.5t-244 253.5t-87.5 388zM328 715q0 -323 128 -498.5t339 -175.5q210 0 338.5 175.5t128.5 498.5t-128.5 500.5t-338.5 177.5q-211 0 -339 -177t-128 -501 zM549 1726l117 117l290 -284l-32 -33z" />
<glyph unicode="&#xd3;" horiz-adv-x="1589" d="M104 717q0 333 191 531t500 198q308 0 498 -198t190 -531q0 -222 -87.5 -388t-242.5 -253.5t-358 -87.5t-359.5 87.5t-244 253.5t-87.5 388zM328 715q0 -323 128 -498.5t339 -175.5q210 0 338.5 175.5t128.5 498.5t-128.5 500.5t-338.5 177.5q-211 0 -339 -177t-128 -501 zM631 1559l291 284l116 -117l-376 -200z" />
<glyph unicode="&#xd4;" horiz-adv-x="1589" d="M104 717q0 333 191 531t500 198q308 0 498 -198t190 -531q0 -222 -87.5 -388t-242.5 -253.5t-358 -87.5t-359.5 87.5t-244 253.5t-87.5 388zM328 715q0 -323 128 -498.5t339 -175.5q210 0 338.5 175.5t128.5 498.5t-128.5 500.5t-338.5 177.5q-211 0 -339 -177t-128 -501 zM498 1559l282 284h27l283 -284l-33 -33l-264 162l-265 -162z" />
<glyph unicode="&#xd5;" horiz-adv-x="1589" d="M104 717q0 333 191 531t500 198q308 0 498 -198t190 -531q0 -222 -87.5 -388t-242.5 -253.5t-358 -87.5t-359.5 87.5t-244 253.5t-87.5 388zM328 715q0 -323 128 -498.5t339 -175.5q210 0 338.5 175.5t128.5 498.5t-128.5 500.5t-338.5 177.5q-211 0 -339 -177t-128 -501 zM453 1604q90 90 147.5 131t104.5 41q37 0 75 -24t77.5 -47.5t78.5 -23.5q81 0 174 93l31 -31q-84 -84 -147.5 -131t-110.5 -47q-42 0 -113.5 47t-120.5 47q-73 0 -164 -88z" />
<glyph unicode="&#xd6;" horiz-adv-x="1589" d="M104 717q0 333 191 531t500 198q308 0 498 -198t190 -531q0 -222 -87.5 -388t-242.5 -253.5t-358 -87.5t-359.5 87.5t-244 253.5t-87.5 388zM328 715q0 -323 128 -498.5t339 -175.5q210 0 338.5 175.5t128.5 498.5t-128.5 500.5t-338.5 177.5q-211 0 -339 -177t-128 -501 zM444 1669q0 53 34.5 88t88.5 35q51 0 86 -35.5t35 -87.5t-35 -86.5t-86 -34.5q-54 0 -88.5 34t-34.5 87zM899 1669q0 53 34.5 88t88.5 35q51 0 86 -35.5t35 -87.5t-35 -86.5t-86 -34.5q-54 0 -88.5 34t-34.5 87z" />
<glyph unicode="&#xd7;" horiz-adv-x="931" d="M106 307l308 307l-308 308l52 49l307 -305l307 305l49 -49l-305 -308l307 -307l-51 -51l-307 307l-307 -307z" />
<glyph unicode="&#xd8;" horiz-adv-x="1589" d="M104 0l179 197q-179 198 -179 520q0 333 191 531t500 198q282 0 465 -168l141 156h82l-180 -199q180 -199 180 -518q0 -222 -87.5 -388t-242.5 -253.5t-358 -87.5q-286 0 -467 166l-140 -154h-84zM328 715q0 -231 67 -393l766 847q-61 109 -155.5 166.5t-210.5 57.5 q-211 0 -339 -177t-128 -501zM426 262q123 -221 369 -221q210 0 338.5 175.5t128.5 498.5q0 229 -72 395z" />
<glyph unicode="&#xd9;" horiz-adv-x="1507" d="M59 1395v39h476v-39l-134 -41v-826q0 -214 117 -331t309 -117q195 0 315 118.5t120 329.5v838l-134 39v29h320v-29l-133 -41v-836q0 -249 -154.5 -393.5t-406.5 -144.5t-406.5 145t-154.5 393v828zM530 1726l117 117l289 -284l-31 -33z" />
<glyph unicode="&#xda;" horiz-adv-x="1507" d="M59 1395v39h476v-39l-134 -41v-826q0 -214 117 -331t309 -117q195 0 315 118.5t120 329.5v838l-134 39v29h320v-29l-133 -41v-836q0 -249 -154.5 -393.5t-406.5 -144.5t-406.5 145t-154.5 393v828zM612 1559l291 284l117 -117l-377 -200z" />
<glyph unicode="&#xdb;" horiz-adv-x="1507" d="M59 1395v39h476v-39l-134 -41v-826q0 -214 117 -331t309 -117q195 0 315 118.5t120 329.5v838l-134 39v29h320v-29l-133 -41v-836q0 -249 -154.5 -393.5t-406.5 -144.5t-406.5 145t-154.5 393v828zM477 1559l283 284h28l281 -284l-33 -33l-262 162l-264 -162z" />
<glyph unicode="&#xdc;" horiz-adv-x="1507" d="M59 1395v39h476v-39l-134 -41v-826q0 -214 117 -331t309 -117q195 0 315 118.5t120 329.5v838l-134 39v29h320v-29l-133 -41v-836q0 -249 -154.5 -393.5t-406.5 -144.5t-406.5 145t-154.5 393v828zM426 1669q0 53 34.5 88t86.5 35q53 0 88 -35t35 -88q0 -52 -35 -86.5 t-88 -34.5t-87 34t-34 87zM881 1669q0 53 34 88t86 35q53 0 88 -35t35 -88q0 -52 -35 -86.5t-88 -34.5q-52 0 -86 34t-34 87z" />
<glyph unicode="&#xdd;" horiz-adv-x="1460" d="M20 1395v39h486v-39l-131 -37l426 -682l432 682l-166 37v39h373v-39l-142 -37l-473 -746v-534l131 -39v-39h-473v39l133 45v526l-466 748zM586 1559l291 284l114 -117l-375 -200z" />
<glyph unicode="&#xde;" horiz-adv-x="1267" d="M59 0v39l134 45v1272l-134 39v39h471v-39l-129 -41v-207h230q238 0 385 -110.5t147 -299.5q0 -188 -147 -297.5t-385 -109.5h-152l-26 28v29h151q154 0 247 90t93 260t-93 260t-247 90h-203v-1005l201 -43v-39h-543z" />
<glyph unicode="&#xdf;" horiz-adv-x="1335" d="M59 0v39l123 43v842h-123v39l123 32v195q0 158 103.5 240.5t304.5 82.5q189 0 271.5 -67t82.5 -176q0 -56 -21.5 -107t-52 -91.5t-60.5 -80.5t-51.5 -90.5t-21.5 -105.5q0 -74 44 -113.5t151 -75.5q37 -14 56.5 -21.5t54 -23t54 -28.5t46.5 -32.5t42.5 -41.5t31 -49 t22 -61t6.5 -73q0 -133 -84.5 -209.5t-263.5 -76.5q-141 0 -244 59l-39 -35l-22 23v221h55q44 -215 236 -215q94 0 151.5 48t57.5 136q0 76 -49.5 115t-168.5 78q-127 47 -175 81q-108 77 -109 224q0 72 24 132.5t58.5 103.5t68.5 84.5t58 94.5t24 115q0 94 -55 150.5 t-164 56.5q-113 0 -166 -65.5t-53 -204.5v-1116l123 -37v-39h-449z" />
<glyph unicode="&#xe0;" horiz-adv-x="1099" d="M102 215q0 40 8 72.5t28 59t43 47t64.5 38.5t80 31t101.5 28t117.5 26t139.5 28q7 1 10.5 2t9.5 2t11 2v180q0 92 -55 149.5t-150 57.5q-89 0 -168 -51v-135q0 -50 -30 -80.5t-76 -30.5q-43 0 -74 29.5t-31 81.5q0 71 54.5 126t143 83t193.5 28q184 0 290 -78.5 t106 -201.5v-600q0 -27 10.5 -38.5t34.5 -11.5q38 0 63 21l21 -19q-67 -67 -195 -67q-61 0 -94 27.5t-39 89.5l-6 8q-65 -60 -159.5 -94.5t-195.5 -34.5q-130 0 -193 59.5t-63 165.5zM279 1296l116 117l291 -287l-33 -30zM301 238q0 -84 42 -127t120 -43q68 0 136 30t116 78 v322q-208 -39 -272 -62q-99 -36 -127 -107q-15 -38 -15 -91z" />
<glyph unicode="&#xe1;" horiz-adv-x="1099" d="M102 215q0 40 8 72.5t28 59t43 47t64.5 38.5t80 31t101.5 28t117.5 26t139.5 28q7 1 10.5 2t9.5 2t11 2v180q0 92 -55 149.5t-150 57.5q-89 0 -168 -51v-135q0 -50 -30 -80.5t-76 -30.5q-43 0 -74 29.5t-31 81.5q0 71 54.5 126t143 83t193.5 28q184 0 290 -78.5 t106 -201.5v-600q0 -27 10.5 -38.5t34.5 -11.5q38 0 63 21l21 -19q-67 -67 -195 -67q-61 0 -94 27.5t-39 89.5l-6 8q-65 -60 -159.5 -94.5t-195.5 -34.5q-130 0 -193 59.5t-63 165.5zM301 238q0 -84 42 -127t120 -43q68 0 136 30t116 78v322q-208 -39 -272 -62 q-99 -36 -127 -107q-15 -38 -15 -91zM358 1126l291 287l117 -117l-377 -200z" />
<glyph unicode="&#xe2;" horiz-adv-x="1099" d="M102 215q0 40 8 72.5t28 59t43 47t64.5 38.5t80 31t101.5 28t117.5 26t139.5 28q7 1 10.5 2t9.5 2t11 2v180q0 92 -55 149.5t-150 57.5q-89 0 -168 -51v-135q0 -50 -30 -80.5t-76 -30.5q-43 0 -74 29.5t-31 81.5q0 71 54.5 126t143 83t193.5 28q184 0 290 -78.5 t106 -201.5v-600q0 -27 10.5 -38.5t34.5 -11.5q38 0 63 21l21 -19q-67 -67 -195 -67q-61 0 -94 27.5t-39 89.5l-6 8q-65 -60 -159.5 -94.5t-195.5 -34.5q-130 0 -193 59.5t-63 165.5zM225 1126l283 287h27l280 -287l-31 -30l-264 159l-264 -159zM301 238q0 -84 42 -127 t120 -43q68 0 136 30t116 78v322q-208 -39 -272 -62q-99 -36 -127 -107q-15 -38 -15 -91z" />
<glyph unicode="&#xe3;" horiz-adv-x="1099" d="M102 215q0 40 8 72.5t28 59t43 47t64.5 38.5t80 31t101.5 28t117.5 26t139.5 28q7 1 10.5 2t9.5 2t11 2v180q0 92 -55 149.5t-150 57.5q-89 0 -168 -51v-135q0 -50 -30 -80.5t-76 -30.5q-43 0 -74 29.5t-31 81.5q0 71 54.5 126t143 83t193.5 28q184 0 290 -78.5 t106 -201.5v-600q0 -27 10.5 -38.5t34.5 -11.5q38 0 63 21l21 -19q-67 -67 -195 -67q-61 0 -94 27.5t-39 89.5l-6 8q-65 -60 -159.5 -94.5t-195.5 -34.5q-130 0 -193 59.5t-63 165.5zM180 1174q88 89 145.5 130.5t104.5 41.5q29 0 60 -15t53.5 -32.5t55 -32.5t63.5 -15 q39 0 86.5 25t87.5 65l30 -30q-172 -176 -258 -176q-35 0 -72.5 23.5t-78.5 47t-82 23.5q-73 0 -164 -88zM301 238q0 -84 42 -127t120 -43q68 0 136 30t116 78v322q-208 -39 -272 -62q-99 -36 -127 -107q-15 -38 -15 -91z" />
<glyph unicode="&#xe4;" horiz-adv-x="1099" d="M102 215q0 40 8 72.5t28 59t43 47t64.5 38.5t80 31t101.5 28t117.5 26t139.5 28q7 1 10.5 2t9.5 2t11 2v180q0 93 -54 150t-149 57q-91 0 -170 -51v-135q0 -51 -29 -81t-77 -30q-43 0 -74 29.5t-31 81.5q0 71 55 126t143.5 83t194.5 28q183 0 288.5 -78.5t105.5 -201.5 v-600q0 -50 45 -50q37 0 65 21l19 -19q-67 -67 -195 -67q-61 0 -94 27.5t-37 89.5l-6 8q-64 -60 -160 -94.5t-197 -34.5q-130 0 -193 59.5t-63 165.5zM176 1239q0 52 35 86.5t88 34.5t87 -34t34 -87t-34 -87t-87 -34t-88 34.5t-35 86.5zM301 238q0 -84 42 -127t120 -43 q68 0 136 30t116 78v322q-208 -39 -272 -62q-99 -36 -127 -107q-15 -38 -15 -91zM631 1239q0 52 35 86.5t88 34.5q52 0 86 -34t34 -87t-34 -87t-86 -34q-53 0 -88 34.5t-35 86.5z" />
<glyph unicode="&#xe5;" horiz-adv-x="1099" d="M102 215q0 40 8 72.5t28 59t43 47t64.5 38.5t80 31t101.5 28t117.5 26t139.5 28q7 1 10.5 2t9.5 2t11 2v180q0 92 -55 149.5t-150 57.5q-89 0 -168 -51v-135q0 -50 -30 -80.5t-76 -30.5q-43 0 -74 29.5t-31 81.5q0 71 54.5 126t143 83t193.5 28q184 0 290 -78.5 t106 -201.5v-600q0 -27 10.5 -38.5t34.5 -11.5q38 0 63 21l21 -19q-67 -67 -195 -67q-61 0 -94 27.5t-39 89.5l-6 8q-65 -60 -159.5 -94.5t-195.5 -34.5q-130 0 -193 59.5t-63 165.5zM301 238q0 -84 42 -127t120 -43q68 0 136 30t116 78v322q-208 -39 -272 -62 q-99 -36 -127 -107q-15 -38 -15 -91zM350 1241q0 76 47 121t123 45q77 0 124.5 -45t47.5 -121q0 -77 -47 -121.5t-125 -44.5q-76 0 -123 44.5t-47 121.5zM428 1241q0 -55 26 -88t66 -33q41 0 65.5 33t24.5 88t-24.5 88t-65.5 33q-40 0 -66 -33t-26 -88z" />
<glyph unicode="&#xe6;" horiz-adv-x="1624" d="M102 211q0 52 15 91t50 68.5t79.5 51t117.5 41.5t149.5 36t189.5 38q8 1 12 2v192q0 92 -55 149.5t-150 57.5q-89 0 -168 -51v-135q0 -50 -30 -80.5t-76 -30.5q-43 0 -74 29.5t-31 81.5q0 71 54.5 126t143 83t193.5 28q177 0 277 -90q122 92 291 92q192 0 313 -108.5 t121 -274.5q0 -45 -8 -76l-29 -28l-586 -10v-314q89 -114 273 -114q185 0 288 106l37 -35q-147 -147 -393 -147q-251 0 -393 129q-65 -60 -159.5 -94.5t-195.5 -34.5q-130 0 -193 57.5t-63 163.5zM301 231q0 -82 41.5 -122.5t118.5 -40.5q69 0 137.5 29t116.5 77v313 q-214 -40 -280 -66q-95 -36 -121 -105q-13 -35 -13 -85zM883 801q18 -44 18 -92v-164l434 33q0 171 -63 265.5t-174 94.5q-133 0 -215 -137z" />
<glyph unicode="&#xe7;" horiz-adv-x="1110" d="M90 489q0 234 132.5 368t373.5 134q106 0 196 -27t148.5 -83.5t58.5 -132.5q0 -55 -31 -85t-75 -30q-48 0 -78.5 31t-30.5 81v142q-76 51 -184 51q-144 0 -223.5 -112.5t-79.5 -311.5q0 -215 95 -333t270 -118q177 0 286 109l35 -35q-138 -138 -367 -147l-47 -88 q74 0 122 -21.5t48 -70.5q0 -50 -53 -117.5t-141 -151.5l-21 23q43 41 70 85.5t27 78.5q0 35 -37.5 50t-128.5 15l110 197q-226 7 -350.5 141t-124.5 358z" />
<glyph unicode="&#xe8;" horiz-adv-x="1116" d="M90 485q0 232 138 369t354 137q192 0 313 -108.5t121 -274.5q0 -45 -8 -76l-29 -28h-682q3 -438 371 -438q183 0 286 106l37 -35q-147 -147 -393 -147q-242 0 -375 136t-133 359zM297 553l530 25q0 171 -63 265.5t-174 94.5q-117 0 -200.5 -104.5t-92.5 -280.5zM338 1296 l117 117l290 -287l-32 -30z" />
<glyph unicode="&#xe9;" horiz-adv-x="1116" d="M90 485q0 232 138 369t354 137q192 0 313 -108.5t121 -274.5q0 -45 -8 -76l-29 -28h-682q3 -438 371 -438q183 0 286 106l37 -35q-147 -147 -393 -147q-242 0 -375 136t-133 359zM297 553l530 25q0 171 -63 265.5t-174 94.5q-117 0 -200.5 -104.5t-92.5 -280.5zM418 1126 l291 287l116 -117l-374 -200z" />
<glyph unicode="&#xea;" horiz-adv-x="1116" d="M90 485q0 232 138 369t354 137q192 0 313 -108.5t121 -274.5q0 -45 -8 -76l-29 -28h-682q3 -438 371 -438q183 0 286 106l37 -35q-147 -147 -393 -147q-242 0 -375 136t-133 359zM285 1126l282 287h27l280 -287l-30 -30l-264 159l-265 -159zM297 553l530 25 q0 171 -63 265.5t-174 94.5q-117 0 -200.5 -104.5t-92.5 -280.5z" />
<glyph unicode="&#xeb;" horiz-adv-x="1116" d="M88 485q0 232 138 369t354 137q193 0 313.5 -108.5t120.5 -274.5q0 -45 -8 -76l-29 -28h-680q0 -438 369 -438q182 0 288 106l35 -35q-144 -147 -393 -147q-242 0 -375 136t-133 359zM221 1239q0 52 35 86.5t88 34.5q51 0 86 -34.5t35 -86.5t-35 -86.5t-86 -34.5 q-53 0 -88 34.5t-35 86.5zM297 553l530 25q0 170 -63.5 265t-173.5 95q-117 0 -200.5 -104.5t-92.5 -280.5zM676 1239q0 53 34.5 87t88.5 34q51 0 86 -34.5t35 -86.5t-35 -86.5t-86 -34.5q-54 0 -88.5 34t-34.5 87z" />
<glyph unicode="&#xec;" horiz-adv-x="567" d="M39 1296l117 117l290 -287l-32 -30zM59 0v39l123 43v803l-116 30v43l290 39l29 -28v-893l123 -37v-39h-449z" />
<glyph unicode="&#xed;" horiz-adv-x="567" d="M59 0v39l123 43v803l-116 30v43l290 39l29 -28v-893l123 -37v-39h-449zM121 1126l291 287l116 -117l-376 -200z" />
<glyph unicode="&#xee;" horiz-adv-x="567" d="M-12 1126l282 287h27l283 -287l-33 -30l-262 159l-267 -159zM59 0v39l123 43v803l-116 30v43l290 39l29 -28v-893l123 -37v-39h-449z" />
<glyph unicode="&#xef;" horiz-adv-x="567" d="M-14 1239q0 52 35 86.5t88 34.5q51 0 85.5 -34.5t34.5 -86.5t-34.5 -86.5t-85.5 -34.5q-53 0 -88 34.5t-35 86.5zM59 0v39l123 43v803l-116 30v43l290 39l29 -28v-893l123 -37v-39h-449zM315 1239q0 53 34.5 87t86.5 34q53 0 88 -34.5t35 -86.5t-35 -86.5t-88 -34.5 q-52 0 -86.5 34t-34.5 87z" />
<glyph unicode="&#xf0;" horiz-adv-x="1175" d="M98 487q0 230 133 367t353 137q128 0 220 -48.5t140 -135.5h8q0 275 -213 455l-149 -148l-51 51l141 142q-102 71 -225.5 114t-239.5 60l37 37q309 -40 489 -150l154 152l51 -52l-143 -143q282 -214 282 -686q0 -332 -128.5 -490.5t-362.5 -158.5q-228 0 -362 133.5 t-134 363.5zM305 489q0 -214 77.5 -330t205.5 -116q129 0 206.5 115.5t77.5 330.5q0 216 -77.5 332.5t-206.5 116.5q-128 0 -205.5 -116.5t-77.5 -332.5z" />
<glyph unicode="&#xf1;" horiz-adv-x="1257" d="M59 0v39l123 43v803l-116 30v43l290 39l29 -28l-6 -113l6 -6q71 67 179.5 104t205.5 37q151 0 228 -94t77 -250v-571l123 -37v-39h-438v39l112 43v543q0 132 -51 209t-151 77q-70 0 -151 -32t-134 -88v-715l111 -37v-39h-437zM287 1174q86 88 145.5 130t104.5 42 q37 0 75 -24t77.5 -47.5t78.5 -23.5t86.5 25t87.5 65l33 -30q-176 -176 -260 -176q-41 0 -112 47t-120 47q-76 0 -164 -88z" />
<glyph unicode="&#xf2;" horiz-adv-x="1175" d="M90 489q0 229 137.5 365.5t360.5 136.5t360 -136.5t137 -365.5q0 -228 -137 -363.5t-360 -135.5t-360.5 135.5t-137.5 363.5zM297 489q0 -214 80 -330t211 -116t210 116t79 330q0 216 -79 332.5t-210 116.5t-211 -117t-80 -332zM342 1296l117 117l289 -287l-31 -30z" />
<glyph unicode="&#xf3;" horiz-adv-x="1175" d="M90 489q0 229 137.5 365.5t360.5 136.5t360 -136.5t137 -365.5q0 -228 -137 -363.5t-360 -135.5t-360.5 135.5t-137.5 363.5zM297 489q0 -214 80 -330t211 -116t210 116t79 330q0 216 -79 332.5t-210 116.5t-211 -117t-80 -332zM424 1126l291 287l114 -117l-374 -200z " />
<glyph unicode="&#xf4;" horiz-adv-x="1175" d="M90 489q0 229 137.5 365.5t360.5 136.5t360 -136.5t137 -365.5q0 -228 -137 -363.5t-360 -135.5t-360.5 135.5t-137.5 363.5zM291 1126l282 287h27l283 -287l-33 -30l-262 159l-266 -159zM297 489q0 -214 80 -330t211 -116t210 116t79 330q0 216 -79 332.5t-210 116.5 t-211 -117t-80 -332z" />
<glyph unicode="&#xf5;" horiz-adv-x="1175" d="M90 489q0 229 137.5 365.5t360.5 136.5t360 -136.5t137 -365.5q0 -228 -137 -363.5t-360 -135.5t-360.5 135.5t-137.5 363.5zM246 1174q86 88 145.5 130t104.5 42q37 0 75 -24t77.5 -47.5t78.5 -23.5t86.5 25t87.5 65l33 -30q-176 -176 -260 -176q-35 0 -73 23.5 t-78.5 47t-80.5 23.5q-75 0 -163 -88zM297 489q0 -214 80 -330t211 -116t210 116t79 330q0 216 -79 332.5t-210 116.5t-211 -117t-80 -332z" />
<glyph unicode="&#xf6;" horiz-adv-x="1175" d="M90 489q0 229 137.5 365.5t360.5 136.5t360 -136.5t137 -365.5q0 -228 -137 -363.5t-360 -135.5t-360.5 135.5t-137.5 363.5zM238 1239q0 52 34.5 86.5t87.5 34.5q52 0 86.5 -34t34.5 -87t-34.5 -87t-86.5 -34q-53 0 -87.5 34.5t-34.5 86.5zM297 489q0 -214 80 -330 t211 -116t210 116t79 330q0 216 -79 332.5t-210 116.5t-211 -117t-80 -332zM692 1239q0 52 35 86.5t88 34.5t87 -34t34 -87t-34 -87t-87 -34t-88 34.5t-35 86.5z" />
<glyph unicode="&#xf7;" horiz-adv-x="931" d="M82 561v72h766v-72h-766zM356 311q0 45 32 77t77 32q46 0 77 -31.5t31 -77.5t-31 -77t-77 -31q-45 0 -77 31.5t-32 76.5zM356 883q0 45 32 76.5t77 31.5q46 0 77 -31t31 -77t-31 -77.5t-77 -31.5q-45 0 -77 32t-32 77z" />
<glyph unicode="&#xf8;" horiz-adv-x="1175" d="M90 0l125 135q-125 134 -125 354q0 229 137.5 365.5t360.5 136.5q195 0 323 -104l88 96h86l-129 -139q129 -135 129 -355q0 -228 -137 -363.5t-360 -135.5q-198 0 -326 104l-88 -94h-84zM297 489q0 -127 33 -231l487 528q-78 152 -229 152q-131 0 -211 -117t-80 -332z M354 195q38 -74 99 -113t135 -39q131 0 210 116t79 330q0 130 -33 234z" />
<glyph unicode="&#xf9;" horiz-adv-x="1251" d="M66 915v43l290 39l29 -28v-654q0 -113 50.5 -179t148.5 -66q71 0 150.5 33t131.5 94v688l-116 30v43l292 39l27 -28v-873l115 -37v-43l-289 -26l-29 26l6 111l-6 6q-70 -69 -175 -106t-204 -37q-149 0 -227 84t-78 221v590zM373 1296l116 117l289 -287l-30 -30z" />
<glyph unicode="&#xfa;" horiz-adv-x="1251" d="M66 915v43l290 39l29 -28v-654q0 -113 50.5 -179t148.5 -66q71 0 150.5 33t131.5 94v688l-116 30v43l292 39l27 -28v-873l115 -37v-43l-289 -26l-29 26l6 111l-6 6q-70 -69 -175 -106t-204 -37q-149 0 -227 84t-78 221v590zM449 1126l290 287l117 -117l-377 -200z" />
<glyph unicode="&#xfb;" horiz-adv-x="1251" d="M66 915v43l290 39l29 -28v-654q0 -113 50.5 -179t148.5 -66q71 0 150.5 33t131.5 94v688l-116 30v43l292 39l27 -28v-873l115 -37v-43l-289 -26l-29 26l6 111l-6 6q-70 -69 -175 -106t-204 -37q-149 0 -227 84t-78 221v590zM322 1126l282 287h27l282 -287l-32 -30 l-263 159l-266 -159z" />
<glyph unicode="&#xfc;" horiz-adv-x="1251" d="M66 915v43l290 39l29 -28v-654q0 -113 50.5 -179t148.5 -66q71 0 150.5 33t131.5 94v688l-116 30v43l292 39l27 -28v-873l115 -37v-43l-289 -26l-29 26l6 111l-6 6q-70 -69 -175 -106t-204 -37q-149 0 -227 84t-78 221v590zM260 1239q0 53 34 87t87 34t87 -34t34 -87 t-34 -87t-87 -34t-87 34t-34 87zM713 1239q0 52 35 86.5t88 34.5q52 0 86 -34t34 -87t-34 -87t-86 -34q-53 0 -88 34.5t-35 86.5z" />
<glyph unicode="&#xfd;" horiz-adv-x="1208" d="M29 944v39h448v-39l-121 -37l318 -696l317 696l-164 37v39h353v-39l-123 -37l-416 -907q-44 -96 -71 -151.5t-60 -116.5t-56.5 -92t-52.5 -59t-58 -38t-64 -10q-67 0 -118.5 35t-51.5 110q0 53 27 80t71 27q46 0 74 -27t28 -71v-72q8 -4 23 -4q45 0 97.5 86.5 t139.5 290.5l-419 919zM471 1126l291 287l115 -117l-375 -200z" />
<glyph unicode="&#xfe;" horiz-adv-x="1198" d="M59 -422l123 43v1786l-116 29v45l290 37l29 -29v-506l-6 -115l6 -6q58 61 145.5 95t182.5 34q192 0 292.5 -131.5t100.5 -351.5q0 -248 -127.5 -383t-355.5 -135q-146 0 -238 55v-426l186 -41v-39h-512v39zM385 100q92 -59 207 -59q146 0 226.5 114.5t80.5 329.5 q0 198 -74.5 312t-203.5 114q-65 0 -128.5 -27.5t-107.5 -80.5v-703z" />
<glyph unicode="&#xff;" horiz-adv-x="1208" d="M29 944v39h448v-39l-121 -37l318 -696l317 696l-164 37v39h353v-39l-123 -37l-416 -907q-44 -96 -71 -151.5t-60 -116.5t-56.5 -92t-52.5 -59t-58 -38t-64 -10q-67 0 -118.5 35t-51.5 110q0 53 27 80t71 27q46 0 74 -27t28 -71v-72q8 -4 23 -4q45 0 97.5 86.5 t139.5 290.5l-419 919zM262 1239q0 53 34.5 87t88.5 34q51 0 86 -34.5t35 -86.5t-35 -86.5t-86 -34.5q-54 0 -88.5 34t-34.5 87zM717 1239q0 53 34.5 87t88.5 34q51 0 86 -34.5t35 -86.5t-35 -86.5t-86 -34.5q-54 0 -88.5 34t-34.5 87z" />
<glyph unicode="&#x152;" horiz-adv-x="2033" d="M104 717q0 333 191 531t500 198q75 0 143 -12h952l15 -258h-54l-86 198h-573v-608h450l41 154h48v-363h-48l-41 152h-450v-654h594l86 203h53l-14 -258h-973q-68 -12 -143 -12q-203 0 -359.5 87.5t-244 253.5t-87.5 388zM328 715q0 -323 128 -498.5t339 -175.5 q114 0 192 70v1210q-84 72 -192 72q-211 0 -339 -177t-128 -501z" />
<glyph unicode="&#x153;" horiz-adv-x="1871" d="M90 489q0 229 137.5 365.5t360.5 136.5q122 0 220.5 -47.5t158.5 -134.5q60 87 156 134.5t214 47.5q193 0 314 -108.5t121 -274.5q0 -42 -9 -76l-28 -28h-682q3 -438 370 -438q186 0 289 106l35 -35q-144 -147 -393 -147q-267 0 -389 178q-62 -85 -159 -131.5t-218 -46.5 q-223 0 -360.5 135.5t-137.5 363.5zM297 489q0 -214 80 -330t211 -116q105 0 177 74.5t99 218.5q-18 71 -18 149q0 81 18 152q-26 147 -98 224t-178 77q-131 0 -211 -117t-80 -332zM1055 553l530 25q0 171 -63 265.5t-174 94.5q-117 0 -201.5 -104.5t-91.5 -280.5z" />
<glyph unicode="&#x178;" horiz-adv-x="1460" d="M20 1395v39h486v-39l-131 -37l426 -682l432 682l-166 37v39h373v-39l-142 -37l-473 -746v-534l131 -39v-39h-473v39l133 45v526l-466 748zM379 1669q0 53 35.5 88t87.5 35t86.5 -35t34.5 -88t-34.5 -87t-86.5 -34q-53 0 -88 34.5t-35 86.5zM834 1669q0 53 35 88t87 35 t86.5 -35t34.5 -88t-34.5 -87t-86.5 -34q-53 0 -87.5 34.5t-34.5 86.5z" />
<glyph unicode="&#x2c6;" horiz-adv-x="761" d="M84 1126l283 287h28l281 -287l-33 -30l-262 159l-264 -159z" />
<glyph unicode="&#x2dc;" horiz-adv-x="845" d="M82 1174q86 88 145.5 130t104.5 42q37 0 75 -24t77.5 -47.5t78.5 -23.5t86.5 25t87.5 65l33 -30q-176 -176 -260 -176q-35 0 -72.5 23.5t-78 47t-80.5 23.5q-76 0 -164 -88z" />
<glyph unicode="&#x2000;" horiz-adv-x="921" />
<glyph unicode="&#x2001;" horiz-adv-x="1843" />
<glyph unicode="&#x2002;" horiz-adv-x="921" />
<glyph unicode="&#x2003;" horiz-adv-x="1843" />
<glyph unicode="&#x2004;" horiz-adv-x="614" />
<glyph unicode="&#x2005;" horiz-adv-x="460" />
<glyph unicode="&#x2006;" horiz-adv-x="307" />
<glyph unicode="&#x2007;" horiz-adv-x="307" />
<glyph unicode="&#x2008;" horiz-adv-x="230" />
<glyph unicode="&#x2009;" horiz-adv-x="368" />
<glyph unicode="&#x200a;" horiz-adv-x="102" />
<glyph unicode="&#x2010;" horiz-adv-x="630" d="M82 528v70h465v-70h-465z" />
<glyph unicode="&#x2011;" horiz-adv-x="630" d="M82 528v70h465v-70h-465z" />
<glyph unicode="&#x2012;" horiz-adv-x="630" d="M82 528v70h465v-70h-465z" />
<glyph unicode="&#x2013;" horiz-adv-x="1034" d="M82 528v70h868v-70h-868z" />
<glyph unicode="&#x2014;" horiz-adv-x="1443" d="M82 528v70h1278v-70h-1278z" />
<glyph unicode="&#x2018;" horiz-adv-x="405" d="M84 1118q0 48 18 96.5t51 93.5t57.5 73t59.5 63l31 -31q-41 -39 -71.5 -94t-30.5 -86q0 -13 6 -19q50 0 83.5 -32t33.5 -84q0 -49 -34 -82t-85 -33q-50 0 -84.5 33.5t-34.5 101.5z" />
<glyph unicode="&#x2019;" horiz-adv-x="405" d="M84 1327q0 51 33.5 84t85.5 33q49 0 84 -34t35 -101q0 -47 -18.5 -96t-52 -95t-58 -73.5t-58.5 -61.5l-31 31q40 37 71.5 92.5t31.5 85.5q0 14 -6 20q-50 0 -83.5 32.5t-33.5 82.5z" />
<glyph unicode="&#x201a;" horiz-adv-x="405" d="M84 115q0 51 33 82.5t86 31.5q50 0 84.5 -33.5t34.5 -101.5q0 -47 -18 -95.5t-52.5 -94t-57.5 -71.5t-59 -62l-31 28q40 39 71.5 95t31.5 86q0 14 -6 20q-50 0 -83.5 32.5t-33.5 82.5z" />
<glyph unicode="&#x201c;" horiz-adv-x="724" d="M84 1118q0 48 18 96.5t51 93.5t57.5 73t59.5 63l31 -31q-41 -39 -71.5 -94t-30.5 -86q0 -13 6 -19q50 0 83.5 -32t33.5 -84q0 -49 -34 -82t-85 -33q-50 0 -84.5 33.5t-34.5 101.5zM401 1118q0 39 14 80t32 72.5t48 69t48.5 57t46.5 47.5l28 -31q-41 -39 -71.5 -94 t-30.5 -86q0 -13 6 -19q50 0 83.5 -32t33.5 -84q0 -50 -33.5 -82.5t-85.5 -32.5q-50 0 -84.5 33.5t-34.5 101.5z" />
<glyph unicode="&#x201d;" horiz-adv-x="724" d="M84 1327q0 51 33.5 84t85.5 33q49 0 84 -34t35 -101q0 -47 -18.5 -96t-52 -95t-58 -73.5t-58.5 -61.5l-31 31q40 37 71.5 92.5t31.5 85.5q0 14 -6 20q-50 0 -83.5 32.5t-33.5 82.5zM401 1327q0 51 34 84t85 33q49 0 84 -34t35 -101q0 -145 -186 -326l-29 31 q39 38 70.5 93t31.5 85q0 14 -6 20q-51 0 -85 32t-34 83z" />
<glyph unicode="&#x201e;" horiz-adv-x="722" d="M84 115q0 51 33 82.5t86 31.5q50 0 84.5 -33.5t34.5 -101.5q0 -47 -18 -95.5t-52.5 -94t-57.5 -71.5t-59 -62l-31 28q40 39 71.5 95t31.5 86q0 14 -6 20q-50 0 -83.5 32.5t-33.5 82.5zM401 115q0 51 33.5 82.5t85.5 31.5q50 0 84.5 -33.5t34.5 -101.5q0 -142 -186 -323 l-29 28q39 39 70.5 95t31.5 86q0 14 -6 20q-51 0 -85 32t-34 83z" />
<glyph unicode="&#x2022;" horiz-adv-x="485" d="M70 614q0 74 49.5 124t122.5 50q74 0 124 -50t50 -124t-50 -124t-124 -50q-73 0 -122.5 50t-49.5 124z" />
<glyph unicode="&#x2026;" horiz-adv-x="1200" d="M84 111q0 51 33.5 84.5t83.5 33.5q52 0 86.5 -33.5t34.5 -84.5t-34.5 -85t-86.5 -34q-50 0 -83.5 34t-33.5 85zM479 111q0 51 35 84.5t86 33.5t85 -33.5t34 -84.5t-34 -85t-85 -34t-86 34t-35 85zM879 111q0 51 33 84.5t83 33.5q52 0 86.5 -33.5t34.5 -84.5t-34.5 -85 t-86.5 -34q-50 0 -83 34t-33 85z" />
<glyph unicode="&#x202f;" horiz-adv-x="368" />
<glyph unicode="&#x2039;" horiz-adv-x="534" d="M78 539v26l325 324l33 -33l-200 -303l200 -307l-33 -31z" />
<glyph unicode="&#x203a;" horiz-adv-x="534" d="M98 246l201 307l-201 303l33 33l326 -324v-26l-326 -324z" />
<glyph unicode="&#x205f;" horiz-adv-x="460" />
<glyph unicode="&#x20ac;" horiz-adv-x="1456" d="M68 549v72h41q-5 77 -5 94t5 94h-41v72h51q46 264 228.5 414.5t459.5 150.5q255 0 432 -115h84l14 -258h-51q-21 77 -62 135t-86.5 90t-101.5 52t-100.5 26t-91.5 6q-212 0 -343 -128.5t-163 -372.5h694v-72h-702q-2 -29 -2 -88q0 -67 4 -100h700v-72h-692 q36 -227 170.5 -354t363.5 -127q275 0 435 163l34 -32q-208 -211 -534 -211q-279 0 -462.5 149t-229.5 412h-49z" />
<glyph unicode="&#x2122;" horiz-adv-x="1658" d="M41 1294l6 140h619l6 -138h-29l-49 105h-172v-639l67 -23v-22h-266v24l68 25v635h-172l-47 -107h-31zM698 717v16l66 23l45 633l-66 20v25h172l252 -586l252 586h166v-25l-63 -23l45 -624l65 -23v-22h-264v24l68 25l-41 534l-252 -583h-49l-254 586l-41 -549l63 -23v-14 h-164z" />
<glyph unicode="&#x25fc;" horiz-adv-x="983" d="M0 0v983h983v-983h-983z" />
</font>
</defs>
</svg>
